<svg width="80" height="80" viewBox="0 0 80 80" fill="none" xmlns="http://www.w3.org/2000/svg">
<g clip-path="url(#clip0_351_2185)">
<path d="M3.98329 65.6391L20.4809 49.1413L13.8081 46.7128C13.2392 46.5057 12.9011 45.9201 13.0064 45.3239L14.7939 35.1868L9.64719 26.2723C9.34453 25.7481 9.46188 25.0822 9.92562 24.6931L17.8109 18.0767L19.5984 7.93956C19.7036 7.34346 20.2214 6.90893 20.8269 6.90893H31.1206L39.0054 0.291913C39.4693 -0.0973045 40.1454 -0.0973045 40.6093 0.291913L48.4945 6.90846H58.788C59.3935 6.90846 59.9113 7.34299 60.0165 7.93909L61.804 18.0761L69.6894 24.6926C70.1532 25.0817 70.2705 25.7476 69.9678 26.2719L64.821 35.1864L66.6085 45.3234C66.7138 45.9196 66.3757 46.5051 65.8068 46.7123L59.4163 49.0381L76.0171 65.6391C76.3603 65.9826 76.4733 66.4944 76.3061 66.9504C76.1391 67.4065 75.7225 67.724 75.2385 67.7643L64.9999 68.6177L64.1465 78.8561C64.1061 79.3402 63.7886 79.7568 63.3325 79.9238C63.1925 79.9752 63.0475 80 62.9036 80C62.5785 80 62.2594 79.8729 62.0213 79.6347L40.0001 57.6135L17.9789 79.6347C17.7406 79.8729 17.4217 80 17.0965 80C16.9526 80 16.8075 79.9752 16.6676 79.9238C16.2115 79.7568 15.8941 79.3402 15.8539 78.8561L15.0003 68.6179L4.76189 67.7644C4.27782 67.7241 3.86126 67.4066 3.69423 66.9504C3.52704 66.4943 3.64001 65.9827 3.98329 65.6391ZM61.8836 75.9688L62.6013 67.3587C62.6519 66.7516 63.1335 66.2698 63.7408 66.2191L72.351 65.5015L56.8294 49.9799L56.134 50.2331L50.9873 59.1476C50.7591 59.5427 50.3419 59.7715 49.9066 59.7715C49.7645 59.7715 49.6204 59.7471 49.4802 59.6962L43.3979 57.4824L61.8836 75.9688ZM38.7903 53.8912L39.381 53.6763C39.6565 53.5759 39.9587 53.5759 40.2342 53.6763L41.1092 53.9948L49.3499 56.994L54.2004 48.5928C54.3471 48.3389 54.5783 48.1446 54.854 48.0442L56.7227 47.3639L63.9697 44.7264L62.2851 35.1731C62.234 34.884 62.2865 34.5865 62.433 34.3325L67.2836 25.9312L59.8521 19.6956C59.6274 19.5072 59.4763 19.2456 59.4257 18.9569L57.7412 9.40346H48.0404C47.747 9.40346 47.463 9.30018 47.2385 9.11158L39.8073 2.87597L32.376 9.11158C32.1514 9.30018 31.8675 9.40346 31.5742 9.40346H21.8733L20.1887 18.9569C20.1378 19.2456 19.9869 19.5073 19.7623 19.6956L12.3309 25.9312L17.1814 34.3325C17.3281 34.5864 17.3805 34.884 17.3295 35.1729L15.6448 44.7262L23.1742 47.4667L24.7608 48.0442C25.0362 48.1446 25.2678 48.3387 25.4143 48.5928L30.2646 56.994L38.7881 53.8918C38.7888 53.8915 38.7896 53.8915 38.7903 53.8912ZM16.2594 66.2193C16.8664 66.2699 17.3483 66.7515 17.3989 67.3588L18.1164 75.969L36.8231 57.2618L30.1346 59.6963C29.9945 59.7474 29.8504 59.7716 29.7082 59.7716C29.2729 59.7716 28.8557 59.5429 28.6276 59.1477L23.4811 50.2332L23.0679 50.0829L7.64922 65.5016L16.2594 66.2193Z" fill="#FF3343"/>
<path d="M39.9999 10.7061C50.9594 10.7061 59.8755 19.6221 59.8755 30.5816C59.8755 41.5412 50.9593 50.4571 39.9999 50.4571C29.0404 50.4571 20.1245 41.541 20.1245 30.5816C20.1245 19.6223 29.0405 10.7061 39.9999 10.7061ZM39.9999 47.9622C49.5836 47.9622 57.3807 40.1652 57.3807 30.5815C57.3807 20.9978 49.5836 13.2009 39.9999 13.2009C30.4163 13.2009 22.6192 20.9979 22.6192 30.5816C22.6192 40.1654 30.4163 47.9622 39.9999 47.9622Z" fill="#FF3343"/>
<path d="M25.6435 26.6099C25.8106 26.0958 26.2895 25.7478 26.8299 25.7478H36.0365L38.8813 16.9919C39.0484 16.4779 39.5273 16.1299 40.0677 16.1299C40.608 16.1299 41.0871 16.4779 41.2541 16.9919L44.0991 25.7478H53.3057C53.846 25.7478 54.325 26.0958 54.4921 26.6099C54.6591 27.1238 54.4761 27.6869 54.0388 28.0045L46.5905 33.4159L49.4355 42.172C49.6025 42.6859 49.4196 43.249 48.9822 43.5667C48.7636 43.7256 48.5065 43.805 48.2491 43.805C47.9918 43.805 47.7346 43.7254 47.516 43.5667L40.0677 38.1555L32.6196 43.5667C32.1824 43.8843 31.5904 43.8843 31.1534 43.5667C30.7162 43.2492 30.5334 42.6861 30.7001 42.172L33.5451 33.4159L26.0968 28.0045C25.6595 27.6869 25.4767 27.1238 25.6435 26.6099ZM35.7446 31.9305C36.1818 32.248 36.3648 32.8111 36.1979 33.3252L34.2593 39.2917L39.3348 35.6044C39.7719 35.2867 40.364 35.2867 40.801 35.6044L45.8766 39.2919L43.938 33.3252C43.771 32.8113 43.954 32.2481 44.3913 31.9306L49.4666 28.243H43.1927C42.6524 28.243 42.1733 27.895 42.0063 27.381L40.0677 21.4144L38.1293 27.381C37.9623 27.895 37.4834 28.243 36.9429 28.243H30.669L35.7446 31.9305Z" fill="#FF3343"/>
</g>
<defs>
<clipPath id="clip0_351_2185">
<rect width="80" height="80" fill="white" transform="matrix(-1 0 0 1 80 0)"/>
</clipPath>
</defs>
</svg>
