<svg width="80" height="74" viewBox="0 0 80 74" fill="none" xmlns="http://www.w3.org/2000/svg">
<path d="M15.2893 70.5295V70.2564V43.6995V43.4707L15.5172 43.4505L19.2129 43.1223C19.213 43.1223 19.2131 43.1223 19.2132 43.1223C21.5925 42.9068 23.5833 43.8345 25.441 44.7001L25.4783 44.7175L25.4783 44.7175L25.4906 44.7233C27.2663 45.5502 28.8758 46.2997 30.7163 46.1437L43.0151 43.9113L43.0178 43.9108C45.2838 43.5247 47.0515 43.9885 48.4413 44.8579C49.7517 45.6777 50.7126 46.8494 51.442 47.9723L64.7175 41.8002L64.7205 41.7988L64.7205 41.7989C69.9128 39.4684 75.707 41.8293 79.1583 47.5572C80.1166 49.1468 79.5796 51.2468 77.9809 52.2465L77.9807 52.2466C76.3691 53.2521 74.7643 54.2577 73.1734 55.2544L72.7707 55.5067L72.7633 55.5113C65.2704 60.206 58.2815 64.5849 52.4738 67.8505C49.5688 69.4839 46.9547 70.8415 44.7175 71.8216C42.4858 72.7993 40.6084 73.4109 39.1828 73.5355C39.1826 73.5355 39.1825 73.5355 39.1823 73.5355L15.2893 70.5295ZM15.2893 70.5295L15.5614 70.5054L22.38 69.9006L15.2893 70.5295ZM31.3906 69.5862L31.3905 69.5861L31.3688 69.5781C28.7889 68.6197 26.0798 67.6134 23.2214 67.6134C22.8775 67.6134 22.5306 67.6277 22.1826 67.6582L22.1822 67.6582L17.5407 68.0699V45.53L19.4134 45.3638L19.4139 45.3638C21.1848 45.2029 22.7726 45.9378 24.5293 46.7567L24.5294 46.7567L24.5409 46.7621C26.4337 47.6432 28.4521 48.5827 30.9982 48.3748L31.0104 48.3738L31.0224 48.3717L43.4073 46.128C43.4077 46.1279 43.4081 46.1278 43.4086 46.1278C45.188 45.8245 46.5074 46.223 47.5445 46.9648C48.5924 47.7143 49.3684 48.8257 50.0287 49.976C50.0287 49.976 50.0287 49.9761 50.0288 49.9761L50.4277 50.6734L50.5418 50.8728L50.7501 50.7759L65.6546 43.847C65.655 43.8468 65.6555 43.8466 65.656 43.8464C69.6899 42.0319 74.3488 43.9344 77.2316 48.7177C77.5489 49.2453 77.3663 49.9768 76.7891 50.3372L76.9075 50.5269L76.7891 50.3372C75.041 51.4287 73.3 52.5194 71.5766 53.5994C64.4816 58.0449 57.5898 62.363 51.8328 65.6256C48.9543 67.257 46.364 68.6219 44.1769 69.6061C41.9828 70.5936 40.2192 71.1863 38.9856 71.2939L38.9849 71.294C36.5806 71.5111 34.0928 70.5911 31.3906 69.5862Z" fill="#FF3343" stroke="#FF3343" stroke-width="0.5"/>
<path d="M34.6073 58.4228L34.6076 58.4227C39.3938 57.4659 44.7809 55.2884 51.0544 51.7635L50.0289 49.9768C49.7195 49.4379 49.906 48.7493 50.4444 48.4408L50.4451 48.4403C50.9833 48.1343 51.671 48.3159 51.9802 48.8562L34.6073 58.4228ZM34.6073 58.4228C33.9988 58.5454 33.6039 59.1371 33.7252 59.7467M34.6073 58.4228L51.9804 48.8565L53.568 51.6229L53.5681 51.6232C53.8759 52.1612 53.6924 52.8489 53.1536 53.1579C46.2667 57.1222 40.3443 59.5706 35.0501 60.6291C34.9739 60.6452 34.8991 60.6518 34.8273 60.6518C34.3022 60.6518 33.8313 60.2833 33.7252 59.7467M33.7252 59.7467C33.7252 59.7468 33.7253 59.7468 33.7253 59.7469L33.9705 59.6981L33.7252 59.7465C33.7252 59.7466 33.7252 59.7466 33.7252 59.7467Z" fill="#FF3343" stroke="#FF3343" stroke-width="0.5"/>
<path d="M3.69465 40.8988H3.94465V40.898H14.2099C14.8052 40.898 15.2903 41.3828 15.2903 41.9792V70.2454C15.2903 70.8408 14.8053 71.3258 14.2099 71.3258H3.69465C3.09926 71.3258 2.61427 70.8408 2.61427 70.2454V41.9792C2.61427 41.3838 3.09926 40.8988 3.69465 40.8988ZM3.69465 73.5763H14.2099C16.0468 73.5763 17.5408 72.0823 17.5408 70.2454V41.9792C17.5408 40.1415 16.0469 38.6475 14.2099 38.6475H3.69465C1.85763 38.6475 0.36377 40.1424 0.36377 41.9792V70.2454C0.36377 72.0823 1.85772 73.5763 3.69465 73.5763Z" fill="#FF3343" stroke="#FF3343" stroke-width="0.5"/>
<path d="M19.7566 17.2837C19.7566 20.3057 22.2151 22.7642 25.2371 22.7642C28.2591 22.7642 30.7176 20.3066 30.7176 17.2837V15.0518C30.7176 12.0298 28.2591 9.57129 25.2371 9.57129C22.2151 9.57129 19.7566 12.0298 19.7566 15.0518V17.2837ZM22.0071 15.0527C22.0071 13.2722 23.4566 11.8227 25.2371 11.8227C27.0176 11.8227 28.4671 13.2713 28.4671 15.0527V17.2845C28.4671 19.0659 27.0184 20.5145 25.2371 20.5145C23.4558 20.5145 22.0071 19.0651 22.0071 17.2845V15.0527Z" fill="#FF3343" stroke="#FF3343" stroke-width="0.5"/>
<path d="M22.5316 23.4856L22.5316 23.4856C22.3201 23.192 21.9804 23.0176 21.618 23.0176H20.657C17.698 23.0176 15.2903 25.4253 15.2903 28.3843V35.5447C15.2903 36.1659 15.7943 36.67 16.4155 36.67C17.0367 36.67 17.5408 36.1659 17.5408 35.5447V28.3843C17.5408 26.666 18.9387 25.2681 20.657 25.2681H21.129C22.0329 26.0772 23.5485 26.5354 25.2363 26.5354C26.9242 26.5354 28.4398 26.0771 29.3444 25.2681H29.8165C31.5348 25.2681 32.9327 26.666 32.9327 28.3843V39.2715C32.9327 39.8938 33.4369 40.3968 34.0579 40.3968C34.6802 40.3968 35.1832 39.8926 35.1832 39.2715V28.3843C35.1832 25.4253 32.7755 23.0176 29.8165 23.0176H28.8555C28.4931 23.0176 28.1534 23.192 27.9419 23.4856L27.9419 23.4856C27.8306 23.6402 27.5313 23.8447 27.0421 24.0107C26.5654 24.1724 25.9443 24.2849 25.2363 24.2849C24.5283 24.2849 23.9075 24.1724 23.4309 24.0107C22.9421 23.8448 22.6429 23.6402 22.5316 23.4856Z" fill="#FF3343" stroke="#FF3343" stroke-width="0.5"/>
<path d="M65.2244 17.2222V17.2221V14.9903C65.2244 11.9682 62.7659 9.50977 59.7439 9.50977C56.7219 9.50977 54.2634 11.9682 54.2634 14.9903V17.2221C54.2634 20.2442 56.7219 22.7026 59.7439 22.7026C62.766 22.7026 65.2235 20.2441 65.2244 17.2222ZM56.5139 14.9903C56.5139 13.2098 57.9634 11.7603 59.7439 11.7603C61.5242 11.7603 62.973 13.2096 62.9739 14.9903C62.9739 14.9903 62.9739 14.9903 62.9739 14.9904V17.2221C62.9739 19.0035 61.5253 20.4521 59.7439 20.4521C57.9626 20.4521 56.5139 19.0027 56.5139 17.2221V14.9903Z" fill="#FF3343" stroke="#FF3343" stroke-width="0.5"/>
<path d="M57.0393 23.4231L57.0393 23.4231C56.8278 23.1295 56.4881 22.9551 56.1257 22.9551H55.1638C52.2039 22.9551 49.7971 25.3628 49.7971 28.3218V37.7299C49.7971 38.3509 50.3001 38.8551 50.9224 38.8551C51.5439 38.8551 52.0471 38.3509 52.0494 37.7299V37.729V28.3218C52.0494 26.6035 53.4481 25.2056 55.1656 25.2056H55.6377C56.5423 26.0146 58.0578 26.4729 59.7458 26.4729C61.4327 26.4729 62.9491 26.0147 63.853 25.2056H64.3251C66.0426 25.2056 67.4413 26.6035 67.4413 28.3218V36.2122C67.4413 36.8332 67.9443 37.3374 68.5665 37.3374C69.1888 37.3374 69.6918 36.8332 69.6918 36.2122V28.3218C69.6918 25.3628 67.285 22.9551 64.3251 22.9551H63.3632C62.9998 22.9551 62.661 23.1296 62.4496 23.4231L62.4496 23.4231C62.3382 23.5777 62.0391 23.7823 61.5503 23.9482C61.0737 24.1099 60.4529 24.2224 59.7449 24.2224C59.0369 24.2224 58.4158 24.1099 57.939 23.9482C57.4499 23.7822 57.1506 23.5777 57.0393 23.4231Z" fill="#FF3343" stroke="#FF3343" stroke-width="0.5"/>
<path d="M47.8987 8.13726V8.13719V5.9053C47.8987 2.88328 45.4403 0.424805 42.4182 0.424805C39.3962 0.424805 36.9377 2.88328 36.9377 5.9053V8.13719C36.9377 11.1592 39.3962 13.6177 42.4182 13.6177C45.4403 13.6177 47.8978 11.1592 47.8987 8.13726ZM39.1882 5.9053C39.1882 4.12482 40.6378 2.6753 42.4182 2.6753C44.1986 2.6753 45.6474 4.12468 45.6482 5.9053C45.6482 5.90534 45.6482 5.90537 45.6482 5.90541V8.13719C45.6482 9.9177 44.1996 11.3672 42.4182 11.3672C40.6369 11.3672 39.1882 9.9177 39.1882 8.13719V5.9053Z" fill="#FF3343" stroke="#FF3343" stroke-width="0.5"/>
<path d="M39.7128 14.3381L39.7127 14.3381C39.5013 14.0445 39.1615 13.8701 38.7992 13.8701H37.8381C34.8791 13.8701 32.4714 16.2778 32.4714 19.2368C32.4714 19.858 32.9755 20.3621 33.5967 20.3621C34.2179 20.3621 34.7219 19.858 34.7219 19.2368C34.7219 17.5185 36.1198 16.1206 37.8381 16.1206H38.3111C39.2149 16.9297 40.7305 17.388 42.4183 17.388C44.1063 17.388 45.6218 16.9297 46.5264 16.1206H46.9976C48.7151 16.1206 50.1138 17.5185 50.1138 19.2368C50.1138 19.8579 50.6169 20.3621 51.2391 20.3621C51.8613 20.3621 52.3643 19.8579 52.3643 19.2368C52.3643 16.2779 49.9575 13.8701 46.9976 13.8701H46.0366C45.6732 13.8701 45.3344 14.0447 45.1231 14.3381L45.123 14.3381C45.0117 14.4927 44.7124 14.6973 44.2233 14.8632C43.7465 15.025 43.1255 15.1375 42.4175 15.1375C41.7094 15.1375 41.0886 15.025 40.6121 14.8632C40.1232 14.6973 39.8241 14.4928 39.7128 14.3381Z" fill="#FF3343" stroke="#FF3343" stroke-width="0.5"/>
</svg>
