<svg width="80" height="80" viewBox="0 0 80 80" fill="none" xmlns="http://www.w3.org/2000/svg">
<path d="M46.3272 62.8467H33.6729V50.1924H46.3263V62.8467H46.3272ZM36.2986 60.221H43.7006V52.819H36.2986V60.221Z" fill="#FF3343"/>
<path d="M64.6453 62.8467H51.9927V50.1924H64.6453V62.8467ZM54.6184 60.221H62.0195V52.819H54.6184V60.221Z" fill="#FF3343"/>
<path d="M28.0072 62.8467H15.3538V50.1924H28.0072V62.8467ZM17.9795 60.221H25.3815V52.819H17.9795V60.221Z" fill="#FF3343"/>
<path d="M73.8293 75.2907V28.5812L70.0421 30.6293L68.1411 2.08301H57.1129L54.6596 38.9477L52.1511 40.3043V28.5812L30.4738 40.3043V28.5812L6.17073 41.724V75.2915H0.61377V77.9173H79.3863V75.2915H73.8293V75.2907ZM65.6851 4.70876L65.9626 8.87232H59.294L59.5706 4.70876H65.6851ZM59.1181 11.4981H66.1367L67.5012 32.0026L57.3904 37.4702L59.1181 11.4981ZM8.79648 43.2898L27.8489 32.9863V44.7094L49.5271 32.9863V44.7094L71.2053 32.9863V75.2907H8.79648V43.2898Z" fill="#FF3343"/>
</svg>
