<svg width="56" height="82" viewBox="0 0 56 82" fill="none" xmlns="http://www.w3.org/2000/svg">
<path d="M10.2751 80.8913L10.2746 80.8908C10.06 80.6616 9.948 80.3533 9.96844 80.0392C10.6246 69.7404 12.3585 61.3303 15.6891 53.7886C18.7872 46.7733 23.2615 40.5216 29.5154 34.205C19.5324 40.3699 10.231 50.5836 8.55858 64.319C8.50052 64.7969 8.14772 65.1878 7.67664 65.2919C7.20413 65.3988 6.71932 65.1932 6.46352 64.7875L6.46333 64.7872C2.52804 58.5261 0.616293 52.5422 0.75726 46.6326C0.898239 40.7225 3.0916 34.914 7.31824 29.0029L7.32158 28.9982L7.32163 28.9982C12.2058 22.4889 19.2077 18.9049 25.3361 15.7681L25.3581 15.7568L25.3581 15.7568C29.0754 13.8544 32.5079 12.0965 35.1854 9.92396C37.8547 7.75806 39.759 5.19125 40.4316 1.67454L40.4316 1.67443C40.5205 1.21083 40.8853 0.850988 41.3507 0.767876C41.3508 0.767863 41.3508 0.767851 41.3509 0.767838L41.3948 1.01395M10.2751 80.8913L42.3126 1.42906C42.1222 1.1144 41.7567 0.949063 41.3948 1.01395M10.2751 80.8913C10.4905 81.1203 10.7912 81.25 11.1055 81.25H15.2549C15.8779 81.25 16.3859 80.7502 16.3951 80.1263L16.3951 80.126C16.4464 76.274 16.892 72.5609 17.7547 68.8052M10.2751 80.8913L16.1451 80.1227M41.3948 1.01395C41.0311 1.07884 40.7465 1.35973 40.6771 1.72151C39.3041 8.9002 32.894 12.1811 25.472 15.9793L25.4694 15.9807C19.3294 19.1235 12.3711 22.6852 7.5216 29.1483C-0.888452 40.9101 -1.15791 52.1919 6.67499 64.6542C6.87508 64.9715 7.25392 65.1315 7.62209 65.0479C7.98937 64.9671 8.26505 64.6622 8.31041 64.2888C10.0437 50.0531 19.9087 39.5913 30.2557 33.4652L41.3948 1.01395ZM16.1451 80.1227C16.138 80.6098 15.7413 81 15.2549 81H11.1055C10.86 81 10.6252 80.8987 10.4572 80.72C10.2891 80.5404 10.2019 80.2995 10.2179 80.0551C11.5051 59.8527 16.9433 46.9906 30.4096 33.6646L16.1451 80.1227ZM16.1451 80.1227C16.1976 76.1822 16.6609 72.3857 17.5591 68.5422M17.5591 68.5422L17.5427 68.7916C17.6135 68.7963 17.6841 68.8008 17.7547 68.8052M17.5591 68.5422L17.8025 68.5991C17.7864 68.6678 17.7705 68.7365 17.7547 68.8052M17.5591 68.5422C33.1528 69.5662 44.5047 63.9128 51.3469 51.6888L17.7547 68.8052M15.7646 67.3281L15.7646 67.3283C14.8045 71.2055 14.2713 75.0269 14.1418 78.9722H12.3257C13.1055 68.3429 15.1237 59.8323 18.9953 52.1749C22.8995 44.4529 28.6969 37.5822 37.0419 30.2768L37.0421 30.2766C37.462 29.9081 37.5536 29.2899 37.2565 28.816C36.9601 28.3407 36.3619 28.153 35.847 28.3713C23.7852 33.4672 10.2239 44.5676 6.82049 60.873C4.02508 55.6514 2.79509 50.6485 3.11584 45.7162C3.4489 40.5946 5.45552 35.5256 9.15859 30.3458C13.7109 24.2814 20.1297 20.9911 26.3969 17.7841L26.3969 17.7841L26.4084 17.7782C29.8126 16.0359 33.1557 14.3249 35.9317 12.22C38.5761 10.215 40.7199 7.8428 41.9229 4.72755C50.9817 20.0029 57.2793 34.13 49.5421 50.7668C46.241 56.6573 41.9331 60.8776 36.543 63.4783C31.148 66.0814 24.6503 67.0709 16.9597 66.4663L16.9582 66.4662C16.3971 66.4254 15.899 66.7874 15.7646 67.3281ZM16.0072 67.3884C16.1122 66.9662 16.4999 66.6835 16.9401 66.7155L14.3843 79.2222C14.499 75.2089 15.0317 71.328 16.0072 67.3884Z" fill="#FF3343" stroke="#FF3343" stroke-width="0.5"/>
</svg>
