<svg width="80" height="80" viewBox="0 0 80 80" fill="none" xmlns="http://www.w3.org/2000/svg">
<path d="M46.8384 46.5806H74V32.2963C74 29.8548 72.4294 27.7446 70.0922 27.0438L63.0323 24.9259V23.2588C65.0185 21.8692 66.3226 19.5693 66.3226 16.9677V13.6774C66.3226 9.44387 62.8776 6 58.6452 6C54.4127 6 50.9677 9.44387 50.9677 13.6774V16.9677C50.9677 19.5693 52.2718 21.8703 54.2581 23.2588V24.9259L51.3286 25.8055C50.4358 25.3208 49.6231 24.6825 48.9464 23.8917L48.5932 23.4804C46.2395 20.7352 42.8176 19.1613 39.2037 19.1613C34.4931 19.1613 30.3923 21.81 28.3051 25.6948L25.7419 24.9259V23.2588C27.7282 21.8692 29.0323 19.5693 29.0323 16.9677V13.6774C29.0323 9.44387 25.5873 6 21.3548 6C17.1224 6 13.6774 9.44387 13.6774 13.6774V16.9677C13.6774 19.5693 14.9815 21.8703 16.9677 23.2588V24.9259L9.90781 27.0438C7.57058 27.7446 6 29.8548 6 32.2963V46.5806H33.1616C33.563 47.0797 34.0171 47.5337 34.5161 47.9352V50.0958L26.2092 52.013C22.705 52.8213 20.2581 55.8977 20.2581 59.493V74H59.7419V59.493C59.7419 55.8977 57.295 52.8213 53.7908 52.0119L45.4839 50.0958V47.9352C45.9829 47.5337 46.437 47.0797 46.8384 46.5806ZM48.7742 41.0968V35.8487C49.9543 36.2962 50.8339 37.3348 50.9524 38.5753C51.0423 39.5185 50.744 40.4212 50.1123 41.1143C49.7339 41.5311 49.2502 41.8239 48.727 42.0016C48.7577 41.7044 48.7742 41.4028 48.7742 41.0968ZM48.1468 44.3377C49.5145 44.2182 50.8065 43.615 51.7366 42.5917C52.773 41.451 53.2841 39.9123 53.1361 38.368C52.9715 36.6373 51.9439 35.1424 50.4917 34.2606C52.4747 33.279 54.1912 31.7961 55.4623 29.9152L57.1711 35.6129H54.2581V44.3871H48.1282C48.1348 44.3706 48.1403 44.3542 48.1468 44.3377ZM60.8387 44.3871H56.4516V37.8065H60.8387V44.3871ZM69.4615 29.1452C70.8643 29.5653 71.8064 30.8321 71.8064 32.2963V44.3871H67.4194V32.3226H65.2258V44.3871H63.0323V35.6129H60.1192L62.6703 27.1074L69.4615 29.1452ZM53.1613 16.9677V13.6774C53.1613 10.6536 55.6214 8.19355 58.6452 8.19355C61.669 8.19355 64.129 10.6536 64.129 13.6774V16.9677C64.129 19.9915 61.669 22.4516 58.6452 22.4516C55.6214 22.4516 53.1613 19.9915 53.1613 16.9677ZM58.6452 24.6452C59.4074 24.6452 60.1434 24.53 60.8387 24.3216V25.5807L58.6452 32.8929L56.4516 25.5807V24.3216C57.147 24.53 57.8829 24.6452 58.6452 24.6452ZM39.2037 21.3548C42.1771 21.3548 44.9914 22.6501 46.9261 24.9062L47.2793 25.3175C48.897 27.2061 51.1081 28.4356 53.5188 28.8579C51.5139 31.7029 48.2686 33.4194 44.7074 33.4194H32.5112C31.2083 33.4194 30.0029 33.8745 29.0323 34.6094V31.5263C29.0323 25.9185 33.5948 21.3548 39.2037 21.3548ZM31.273 42.0027C30.7487 41.825 30.2661 41.5322 29.8877 41.1154C29.2571 40.4212 28.9577 39.5196 29.0476 38.5764C29.1661 37.3359 30.0457 36.2962 31.2258 35.8498V41.0968C31.2258 41.4028 31.2423 41.7044 31.273 42.0027ZM15.871 16.9677V13.6774C15.871 10.6536 18.331 8.19355 21.3548 8.19355C24.3786 8.19355 26.8387 10.6536 26.8387 13.6774V16.9677C26.8387 19.9915 24.3786 22.4516 21.3548 22.4516C18.331 22.4516 15.871 19.9915 15.871 16.9677ZM21.3548 24.6452C22.1171 24.6452 22.853 24.53 23.5484 24.3216V25.5807L21.3548 32.8929L19.1613 25.5807V24.3216C19.8566 24.53 20.5926 24.6452 21.3548 24.6452ZM23.5484 44.3871H19.1613V37.8065H23.5484V44.3871ZM8.19355 32.2963C8.19355 30.8321 9.13568 29.5653 10.5385 29.1452L17.3297 27.1074L19.8808 35.6129H16.9677V44.3871H14.7742V32.3226H12.5806V44.3871H8.19355V32.2963ZM25.7419 44.3871V35.6129H22.8289L25.38 27.1074L27.4419 27.726C27.0537 28.9248 26.8387 30.2003 26.8387 31.5263V38.9032H26.8694C26.8727 40.2621 27.3476 41.5837 28.2645 42.5917C29.1946 43.615 30.4866 44.2182 31.8543 44.3377C31.8608 44.3542 31.8663 44.3706 31.8729 44.3871H25.7419ZM33.4194 41.0968V35.6129H44.7074C45.3413 35.6129 45.9665 35.5668 46.5806 35.4791V41.0968C46.5806 44.726 43.6292 47.6774 40 47.6774C36.3708 47.6774 33.4194 44.726 33.4194 41.0968ZM44.6372 52.1512L44.9673 52.2268L43.7323 55.6861L41.8272 54.2581L44.6372 52.1512ZM45.4839 71.8064H34.5161V67.4194H45.4839V71.8064ZM39.6754 65.2258L37.0409 57.8478L40 55.629L42.9591 57.8478L40.3246 65.2258H39.6754ZM36.2688 55.6861L35.0338 52.2268L35.3639 52.1512L38.1728 54.2581L36.2688 55.6861ZM22.4516 59.493C22.4516 56.9243 24.1999 54.7275 26.7016 54.1495L32.8819 52.7226L37.3469 65.2258H32.3226V71.8064H30.129V59.7419H27.9355V71.8064H22.4516V59.493ZM57.5484 59.493V71.8064H52.0645V59.7419H49.871V71.8064H47.6774V65.2258H42.6531L47.1181 52.7237L53.2984 54.1495C55.8001 54.7275 57.5484 56.9243 57.5484 59.493ZM43.2903 50.4194L40 52.8871L36.7097 50.4194V49.225C37.7264 49.6385 38.8363 49.871 40 49.871C41.1637 49.871 42.2736 49.6385 43.2903 49.225V50.4194Z" fill="#FF3343"/>
</svg>
