<svg width="80" height="80" viewBox="0 0 80 80" fill="none" xmlns="http://www.w3.org/2000/svg">
<path d="M39.808 19.7684L57.647 25.9734V32.3834C57.647 46.3064 50.595 54.5414 39.808 60.3834C29.021 54.5404 21.975 46.3064 21.975 32.3834V25.9734L39.808 19.7684ZM39.499 17.8734L20.718 24.4044C20.338 24.5354 20.084 24.8944 20.084 25.3004V32.3824C20.084 47.1694 27.937 56.2894 39.365 62.3414C39.641 62.4864 39.974 62.4864 40.25 62.3414C51.676 56.2894 59.531 47.1694 59.531 32.3824V25.3004C59.531 24.8934 59.275 24.5344 58.895 24.4044L40.119 17.8734C39.896 17.7944 39.677 17.8114 39.499 17.8734Z" fill="#FF3343"/>
<path fill-rule="evenodd" clip-rule="evenodd" d="M48.0779 32.4977L50.1509 34.5357C50.3319 34.7117 50.3319 34.9517 50.1509 35.1287C49.5939 35.6807 43.5669 41.8257 40.2599 45.1347C39.3949 45.9927 38.5199 46.8477 37.6459 47.7117C37.4629 47.8897 37.1979 47.8947 37.0199 47.7167L29.4739 40.1807C29.2959 40.0037 29.3019 39.7427 29.4789 39.5607C30.1869 38.8477 31.1289 37.8827 31.5829 37.4257C31.7639 37.2427 32.0039 37.2427 32.1919 37.4257L36.6759 41.9157C37.0449 42.2847 37.6459 42.2847 38.0149 41.9157L47.2909 32.6497C47.5569 32.3827 47.8959 32.3167 48.0779 32.4977ZM47.5889 30.5607C46.9849 30.6237 46.4109 30.8637 45.9579 31.3167L37.3489 39.9047L33.5259 36.0927C32.6299 35.1967 31.1469 35.1967 30.2509 36.0977C29.7919 36.5607 28.8389 37.5187 28.1359 38.2327C27.2449 39.1347 27.2349 40.6127 28.1359 41.5137L35.6879 49.0557C36.5949 49.9567 38.0729 49.9567 38.9749 49.0607C39.8439 48.2027 40.7239 47.3417 41.5949 46.4677C44.9179 43.1497 51.1149 36.8307 51.4799 36.4727C52.3849 35.5817 52.3759 34.0817 51.4749 33.1917L49.4069 31.1537C48.8849 30.6447 48.1919 30.5037 47.5889 30.5607Z" fill="#FF3343"/>
<path d="M29.1612 69.3162C28.0572 71.0922 26.5432 72.2582 24.7402 72.4672C22.9942 72.6702 20.9692 71.8632 18.9282 70.2682C20.7762 69.4092 22.4752 68.5082 24.3392 68.3012C26.1992 68.0872 27.5212 68.4672 29.1612 69.3162ZM13.5842 60.3312C15.5102 60.5252 16.9172 61.4102 18.5262 63.2652C16.8442 64.5042 15.0052 65.0312 13.2562 64.5562C11.5572 64.0982 9.97525 62.5982 8.67225 60.3592C10.1992 60.2732 11.6562 60.1342 13.5842 60.3312ZM2.92225 47.1122C4.83825 47.8052 6.68225 48.3682 7.87025 49.1282C9.15125 49.9512 10.0982 51.3162 10.8492 53.6532C8.81825 54.1332 6.91725 53.8932 5.49425 52.7732C4.11525 51.6852 3.24525 49.6852 2.92225 47.1122ZM2.34425 32.7372C3.87125 34.0922 5.37125 35.2942 6.18825 36.4452C7.07325 37.6792 7.44825 39.2992 7.27625 41.7532C5.21025 41.4402 3.53825 40.5182 2.63125 38.9452C1.75625 37.4202 1.68725 35.2432 2.34425 32.7372ZM7.66125 18.9672C8.45925 20.8422 9.30325 22.5712 9.55225 23.9612C9.82325 25.4562 9.46925 27.0822 8.26625 29.2222C6.53325 28.0602 5.41225 26.5082 5.26625 24.7012C5.12525 22.9512 5.99425 20.9512 7.66125 18.9672ZM16.7452 8.51925C17.0002 10.5402 17.1882 12.4312 17.0522 13.8422C16.9072 15.3522 16.2822 16.8212 14.5432 18.5552C13.1882 16.9672 12.5322 15.1702 12.8802 13.3882C13.2182 11.6642 14.5982 9.97825 16.7452 8.51925ZM16.9942 6.11225C13.6722 7.90425 11.6722 10.3772 11.1522 13.0492C10.6772 15.4512 11.4282 17.9152 13.1932 19.9042C12.4532 20.9512 11.7812 22.0292 11.1772 23.1442C10.7182 21.1802 9.76525 19.3302 8.78125 16.9202C8.52625 16.3002 7.72925 16.1342 7.25025 16.5822C4.49425 19.1642 3.28625 22.1282 3.50525 24.8422C3.72425 27.5502 5.41125 29.9312 8.09825 31.3422C7.80825 32.6182 7.59825 33.9052 7.46325 35.2072C6.19825 33.5302 4.48025 32.2492 2.48425 30.4102C1.96325 29.9262 1.19225 30.1602 0.958248 30.7542C-0.416752 34.2742 -0.260752 37.4682 1.09825 39.8262C2.40625 42.0982 4.82225 43.4982 7.71325 43.7112C7.92225 44.9832 8.20925 46.2432 8.57325 47.4982C6.77625 46.4212 4.72925 45.8262 2.19325 44.9052C1.40125 44.6132 0.885248 45.1292 0.901248 45.7912C0.985248 49.5622 2.26125 52.4742 4.40125 54.1602C6.46425 55.7912 9.23425 56.1922 12.0052 55.3072C12.6872 56.4272 13.4312 57.4982 14.2442 58.5262C12.0982 58.1762 9.92725 58.5842 7.13025 58.6142C6.39625 58.6192 6.02625 59.3542 6.28625 59.9362C7.83225 63.3792 10.1652 65.5452 12.7912 66.2602C15.3222 66.9472 18.0202 66.2392 20.2122 64.3482C21.2552 65.1242 22.3372 65.8382 23.4622 66.4882C21.3262 66.9572 19.4362 68.1082 16.8482 69.2172C16.1812 69.5042 16.0672 70.2652 16.5562 70.7602C19.2122 73.4412 22.2392 74.5362 24.9412 74.2232C27.5502 73.9222 29.8012 72.2602 31.1402 69.6762C32.0772 69.9322 33.0202 70.1553 33.9882 70.3262C35.2552 70.5833 35.5882 68.6542 34.3122 68.4682C23.9112 66.6352 15.2032 59.5412 11.3122 49.7222C7.46825 40.0402 8.86425 28.8202 14.9622 20.6702C16.5092 18.5982 18.6402 17.1342 18.9622 14.0082C19.1912 11.8252 18.6542 9.67025 18.3742 6.85825C18.3022 6.13425 17.5512 5.81125 16.9942 6.11225Z" fill="#FF3343"/>
<path d="M50.458 69.3162C51.562 71.0922 53.073 72.2582 54.875 72.4672C56.625 72.6702 58.646 71.8632 60.687 70.2682C58.838 69.4092 57.141 68.5082 55.281 68.3012C53.422 68.0872 52.094 68.4672 50.458 69.3162ZM66.037 60.3312C64.103 60.5252 62.698 61.4102 61.089 63.2652C62.77 64.5042 64.614 65.0312 66.365 64.5562C68.057 64.0982 69.641 62.5982 70.948 60.3592C69.422 60.2732 67.963 60.1342 66.037 60.3312ZM76.692 47.1122C74.775 47.8052 72.936 48.3682 71.744 49.1282C70.463 49.9512 69.52 51.3162 68.764 53.6532C70.801 54.1332 72.698 53.8932 74.124 52.7732C75.5 51.6852 76.375 49.6852 76.692 47.1122ZM77.27 32.7372C75.75 34.0922 74.25 35.2942 73.428 36.4452C72.542 37.6792 72.172 39.2992 72.344 41.7532C74.407 41.4402 76.083 40.5182 76.985 38.9452C77.865 37.4202 77.928 35.2432 77.27 32.7372ZM71.958 18.9672C71.161 20.8422 70.318 22.5712 70.062 23.9612C69.791 25.4562 70.146 27.0822 71.348 29.2222C73.082 28.0602 74.203 26.5082 74.353 24.7012C74.494 22.9512 73.62 20.9512 71.958 18.9672ZM62.875 8.51925C62.619 10.5402 62.431 12.4312 62.567 13.8422C62.709 15.3522 63.333 16.8212 65.072 18.5552C66.427 16.9672 67.082 15.1702 66.734 13.3882C66.396 11.6642 65.016 9.97825 62.875 8.51925ZM62.625 6.11225C65.942 7.90425 67.942 10.3772 68.469 13.0492C68.937 15.4512 68.188 17.9152 66.428 19.9042C67.167 20.9512 67.839 22.0292 68.437 23.1442C68.896 21.1802 69.849 19.3302 70.839 16.9202C71.089 16.3002 71.891 16.1342 72.371 16.5822C75.121 19.1642 76.334 22.1282 76.109 24.8422C75.891 27.5502 74.21 29.9312 71.521 31.3422C71.808 32.6182 72.021 33.9052 72.156 35.2072C73.423 33.5302 75.136 32.2492 77.131 30.4102C77.656 29.9262 78.429 30.1602 78.662 30.7542C80.033 34.2742 79.877 37.4682 78.517 39.8262C77.21 42.0982 74.798 43.4982 71.908 43.7112C71.7 44.9832 71.413 46.2432 71.048 47.4982C72.84 46.4212 74.893 45.8262 77.43 44.9052C78.22 44.6132 78.737 45.1292 78.72 45.7912C78.632 49.5622 77.356 52.4742 75.22 54.1602C73.157 55.7912 70.387 56.1922 67.616 55.3072C66.933 56.4272 66.184 57.4982 65.377 58.5262C67.522 58.1762 69.689 58.5842 72.49 58.6142C73.225 58.6192 73.595 59.3542 73.328 59.9362C71.782 63.3792 69.454 65.5452 66.823 66.2602C64.298 66.9472 61.599 66.2392 59.402 64.3482C58.366 65.1242 57.282 65.8382 56.152 66.4882C58.292 66.9572 60.177 68.1082 62.771 69.2172C63.438 69.5042 63.547 70.2652 63.058 70.7602C60.407 73.4412 57.38 74.5362 54.673 74.2232C52.064 73.9222 49.814 72.2602 48.481 69.6762C47.543 69.9322 46.596 70.1553 45.631 70.3262C44.366 70.5833 44.027 68.6542 45.309 68.4682C55.71 66.6352 64.413 59.5412 68.309 49.7222C72.148 40.0402 70.757 28.8202 64.657 20.6702C63.11 18.5982 60.976 17.1342 60.653 14.0082C60.429 11.8252 60.96 9.67025 61.246 6.85825C61.313 6.13425 62.062 5.81125 62.625 6.11225Z" fill="#FF3343"/>
</svg>
