<svg width="80" height="80" viewBox="0 0 80 80" fill="none" xmlns="http://www.w3.org/2000/svg">
<path d="M72.9375 67.641H71.875V60.2222C71.8737 59.4715 71.6063 58.7455 71.1203 58.1724C70.6342 57.5993 69.9607 57.216 69.2188 57.0903V15.1795C69.2178 14.3365 68.8817 13.5283 68.2841 12.9323C67.6866 12.3362 66.8763 12.0009 66.0312 12H53.2812C52.4362 12.0009 51.6259 12.3362 51.0284 12.9323C50.4308 13.5283 50.0947 14.3365 50.0938 15.1795V18.359H49.0312C48.7495 18.359 48.4792 18.4707 48.28 18.6694C48.0807 18.8682 47.9688 19.1377 47.9688 19.4188V22.6459C47.2268 22.7716 46.5533 23.1549 46.0672 23.728C45.5812 24.3011 45.3138 25.0271 45.3125 25.7778V48.5641H47.4375V42.2051H48.5C48.7818 42.2051 49.052 42.0935 49.2513 41.8947C49.4506 41.696 49.5625 41.4264 49.5625 41.1453C49.5625 40.8642 49.4506 40.5946 49.2513 40.3959C49.052 40.1971 48.7818 40.0855 48.5 40.0855H47.4375V37.9658H48.5C48.7818 37.9658 49.052 37.8542 49.2513 37.6554C49.4506 37.4566 49.5625 37.1871 49.5625 36.906C49.5625 36.6249 49.4506 36.3553 49.2513 36.1566C49.052 35.9578 48.7818 35.8462 48.5 35.8462H47.4375V33.7265H48.5C48.7818 33.7265 49.052 33.6148 49.2513 33.4161C49.4506 33.2173 49.5625 32.9478 49.5625 32.6667C49.5625 32.3856 49.4506 32.116 49.2513 31.9173C49.052 31.7185 48.7818 31.6068 48.5 31.6068H47.4375V25.7778C47.4378 25.4968 47.5499 25.2274 47.7491 25.0287C47.9482 24.83 48.2183 24.7183 48.5 24.7179H53.8125C54.0942 24.7183 54.3643 24.83 54.5634 25.0287C54.7626 25.2274 54.8747 25.4968 54.875 25.7778V48.5641H57V41.1453H67.0938V57.0427H66.2969V59.1624H68.6875C68.9692 59.1627 69.2393 59.2745 69.4384 59.4732C69.6376 59.6719 69.7497 59.9412 69.75 60.2222V67.641H64.4375V53.8633C64.4305 53.0143 64.0861 52.2027 63.48 51.6067C62.8739 51.0106 62.0555 50.6787 61.2044 50.6838H43.1875V52.8034H61.2044C61.4921 52.7978 61.7703 52.9063 61.978 53.1049C62.1857 53.3036 62.306 53.5763 62.3125 53.8633V67.641H41.0625V48.9103C40.7214 49.0314 40.3621 49.0935 40 49.094H38.9375V67.641H10.25V49.094H9.1875C8.82544 49.0935 8.46612 49.0313 8.125 48.9103V67.641H7.0625C6.78071 67.641 6.51047 67.7527 6.31121 67.9515C6.11196 68.1502 6.00001 68.4198 6 68.7009V72.9402C6.00001 73.2213 6.11196 73.4908 6.31121 73.6896C6.51047 73.8883 6.78071 74 7.0625 74H72.9375C73.2193 74 73.4895 73.8883 73.6888 73.6896C73.888 73.4908 74 73.2213 74 72.9402V68.7009C74 68.4198 73.888 68.1502 73.6888 67.9515C73.4895 67.7527 73.2193 67.641 72.9375 67.641ZM50.0938 20.4786H52.2188V22.5983H50.0938V20.4786ZM54.3438 22.6459V19.4188C54.3437 19.1377 54.2318 18.8682 54.0325 18.6694C53.8333 18.4707 53.563 18.359 53.2812 18.359H52.2188V15.1795C52.2191 14.8985 52.3311 14.6291 52.5303 14.4304C52.7295 14.2318 52.9996 14.12 53.2812 14.1197H66.0312C66.3129 14.12 66.583 14.2318 66.7822 14.4304C66.9814 14.6291 67.0934 14.8985 67.0938 15.1795V34.7863H57V25.7778C56.9987 25.0271 56.7313 24.3011 56.2453 23.728C55.7592 23.1549 55.0857 22.7716 54.3438 22.6459ZM57 39.0256V36.906H67.0938V39.0256H57ZM71.875 71.8803H8.125V69.7607H71.875V71.8803Z" fill="#FF3343"/>
<path d="M8.31998 46.5346C8.41826 46.6788 8.54652 46.7961 8.69441 46.877C8.84231 46.9578 9.0057 46.9999 9.17143 47H39.8286C39.9943 46.9999 40.1577 46.9578 40.3056 46.877C40.4535 46.7961 40.5817 46.6788 40.68 46.5346L41.7369 44.9816C42.4995 43.7888 42.9371 42.3886 43 40.9403V40.1429C43 39.8398 42.8886 39.5491 42.6904 39.3347C42.4921 39.1204 42.2232 39 41.9429 39C41.8729 39 7.05714 39.0212 7.05714 39.0212C6.77678 39.0212 6.50789 39.1416 6.30964 39.356C6.11139 39.5703 6.00001 39.861 6 40.1641V40.9403C6.06296 42.3886 6.50048 43.7887 7.26284 44.9816L8.31998 46.5346ZM40.8599 41.3069C40.7417 42.1352 40.4601 42.9264 40.0343 43.6267L39.2941 44.7143H9.70594L8.96547 43.6267C8.53975 42.9263 8.25827 42.1352 8.1401 41.3069H40.8599Z" fill="#FF3343"/>
<path d="M22 53C21.7348 53 21.4804 53.1171 21.2929 53.3255C21.1054 53.5338 21 53.8164 21 54.1111V61.8889C21 62.1836 21.1054 62.4662 21.2929 62.6745C21.4804 62.8829 21.7348 63 22 63H27C27.2652 63 27.5196 62.8829 27.7071 62.6745C27.8946 62.4662 28 62.1836 28 61.8889V54.1111C28 53.8164 27.8946 53.5338 27.7071 53.3255C27.5196 53.1171 27.2652 53 27 53H22ZM26 60.7778H23V55.2222H26V60.7778Z" fill="#FF3343"/>
<path d="M12 57V59C12 59.2652 12.158 59.5196 12.4393 59.7071C12.7206 59.8946 13.1022 60 13.5 60C13.8978 60 14.2794 59.8946 14.5607 59.7071C14.842 59.5196 15 59.2652 15 59V57C15 56.7348 14.842 56.4804 14.5607 56.2929C14.2794 56.1054 13.8978 56 13.5 56C13.1022 56 12.7206 56.1054 12.4393 56.2929C12.158 56.4804 12 56.7348 12 57Z" fill="#FF3343"/>
<path d="M17 57V59C17 59.2652 17.1054 59.5196 17.2929 59.7071C17.4804 59.8946 17.7348 60 18 60C18.2652 60 18.5196 59.8946 18.7071 59.7071C18.8946 59.5196 19 59.2652 19 59V57C19 56.7348 18.8946 56.4804 18.7071 56.2929C18.5196 56.1054 18.2652 56 18 56C17.7348 56 17.4804 56.1054 17.2929 56.2929C17.1054 56.4804 17 56.7348 17 57Z" fill="#FF3343"/>
<path d="M46 61V59C46 58.7348 45.8946 58.4804 45.7071 58.2929C45.5196 58.1054 45.2652 58 45 58C44.7348 58 44.4804 58.1054 44.2929 58.2929C44.1054 58.4804 44 58.7348 44 59V61C44 61.2652 44.1054 61.5196 44.2929 61.7071C44.4804 61.8946 44.7348 62 45 62C45.2652 62 45.5196 61.8946 45.7071 61.7071C45.8946 61.5196 46 61.2652 46 61Z" fill="#FF3343"/>
<path d="M51 61V59C51 58.7348 50.8946 58.4804 50.7071 58.2929C50.5196 58.1054 50.2652 58 50 58C49.7348 58 49.4804 58.1054 49.2929 58.2929C49.1054 58.4804 49 58.7348 49 59V61C49 61.2652 49.1054 61.5196 49.2929 61.7071C49.4804 61.8946 49.7348 62 50 62C50.2652 62 50.5196 61.8946 50.7071 61.7071C50.8946 61.5196 51 61.2652 51 61Z" fill="#FF3343"/>
<path d="M55 61V59C55 58.7348 54.8946 58.4804 54.7071 58.2929C54.5196 58.1054 54.2652 58 54 58C53.7348 58 53.4804 58.1054 53.2929 58.2929C53.1054 58.4804 53 58.7348 53 59V61C53 61.2652 53.1054 61.5196 53.2929 61.7071C53.4804 61.8946 53.7348 62 54 62C54.2652 62 54.5196 61.8946 54.7071 61.7071C54.8946 61.5196 55 61.2652 55 61Z" fill="#FF3343"/>
<path d="M59 61V59C59 58.7348 58.8946 58.4804 58.7071 58.2929C58.5196 58.1054 58.2652 58 58 58C57.7348 58 57.4804 58.1054 57.2929 58.2929C57.1054 58.4804 57 58.7348 57 59V61C57 61.2652 57.1054 61.5196 57.2929 61.7071C57.4804 61.8946 57.7348 62 58 62C58.2652 62 58.5196 61.8946 58.7071 61.7071C58.8946 61.5196 59 61.2652 59 61Z" fill="#FF3343"/>
<path d="M30 57V59C30 59.2652 30.158 59.5196 30.4393 59.7071C30.7206 59.8946 31.1022 60 31.5 60C31.8978 60 32.2794 59.8946 32.5607 59.7071C32.842 59.5196 33 59.2652 33 59V57C33 56.7348 32.842 56.4804 32.5607 56.2929C32.2794 56.1054 31.8978 56 31.5 56C31.1022 56 30.7206 56.1054 30.4393 56.2929C30.158 56.4804 30 56.7348 30 57Z" fill="#FF3343"/>
<path d="M35 57V59C35 59.2652 35.1054 59.5196 35.2929 59.7071C35.4804 59.8946 35.7348 60 36 60C36.2652 60 36.5196 59.8946 36.7071 59.7071C36.8946 59.5196 37 59.2652 37 59V57C37 56.7348 36.8946 56.4804 36.7071 56.2929C36.5196 56.1054 36.2652 56 36 56C35.7348 56 35.4804 56.1054 35.2929 56.2929C35.1054 56.4804 35 56.7348 35 57Z" fill="#FF3343"/>
<path d="M19.0952 32.2547H24.3333V37H26.4286V20.7028C26.4298 19.589 26.8718 18.5213 27.6573 17.7338C28.4429 16.9463 29.5081 16.5033 30.619 16.502H32.7143C33.8253 16.5033 34.8904 16.9463 35.676 17.7338C36.4616 18.5213 36.9035 19.589 36.9048 20.7028V23.8533H35.3333C35.0555 23.8533 34.789 23.9639 34.5926 24.1609C34.3961 24.3578 34.2857 24.6249 34.2857 24.9035C34.2857 25.182 34.3961 25.4491 34.5926 25.6461C34.789 25.843 35.0555 25.9536 35.3333 25.9536H36.9048V28.054H35.3333C35.0555 28.054 34.789 28.1646 34.5926 28.3616C34.3961 28.5585 34.2857 28.8257 34.2857 29.1042C34.2857 29.3827 34.3961 29.6498 34.5926 29.8468C34.789 30.0437 35.0555 30.1544 35.3333 30.1544H36.9048V32.2547H35.3333C35.0555 32.2547 34.789 32.3654 34.5926 32.5623C34.3961 32.7593 34.2857 33.0264 34.2857 33.3049C34.2857 33.5834 34.3961 33.8505 34.5926 34.0475C34.789 34.2444 35.0555 34.3551 35.3333 34.3551H36.9048V37H39V20.7028C38.9982 19.4976 38.6518 18.3183 38.002 17.3044C37.3521 16.2906 36.426 15.4847 35.3333 14.9822V11.2511C35.3333 10.9726 35.2229 10.7055 35.0265 10.5086C34.83 10.3116 34.5636 10.201 34.2857 10.201H32.7143V9.06362C32.7017 8.23995 32.3637 7.45492 31.7746 6.88065C31.1854 6.30639 30.3931 5.98978 29.5714 6.00025H20.1429C19.3096 6.00116 18.5107 6.33338 17.9215 6.92403C17.3323 7.51467 17.0009 8.31549 17 9.15079V37H19.0952V32.2547ZM19.0952 30.1544V28.054H24.3333V30.1544H19.0952ZM33.2381 14.4017H30.0952V12.3013H33.2381V14.4017ZM20.1429 8.10061H29.5714C29.8375 8.08981 30.0971 8.18503 30.2934 8.36548C30.4897 8.54592 30.6068 8.79692 30.619 9.06362V10.201H29.0476C28.7698 10.201 28.5033 10.3116 28.3069 10.5086C28.1104 10.7055 28 10.9726 28 11.2511V14.9822C26.9073 15.4847 25.9812 16.2906 25.3314 17.3044C24.6815 18.3183 24.3352 19.4976 24.3333 20.7028V25.9536H19.0952V9.15079C19.0956 8.87236 19.206 8.60543 19.4024 8.40856C19.5988 8.21168 19.8651 8.10093 20.1429 8.10061Z" fill="#FF3343"/>
<path d="M15 33.9954C15 33.7314 14.842 33.4782 14.5607 33.2915C14.2794 33.1049 13.8978 33 13.5 33C13.1022 33 12.7206 33.1049 12.4393 33.2915C12.158 33.4782 12 33.7314 12 33.9954V37H15V33.9954Z" fill="#FF3343"/>
<path d="M10 33.9954C10 33.7314 9.89464 33.4782 9.70711 33.2915C9.51957 33.1049 9.26522 33 9 33C8.73478 33 8.48043 33.1049 8.29289 33.2915C8.10536 33.4782 8 33.7314 8 33.9954V37H10V33.9954Z" fill="#FF3343"/>
</svg>
