<svg width="30" height="30" viewBox="0 0 30 30" fill="none" xmlns="http://www.w3.org/2000/svg">
<path d="M14.9998 0C6.72897 0 0 6.72897 0 15C0 23.2713 6.72897 30 14.9998 30C23.2708 30 30 23.2713 30 15C29.9998 6.72897 23.2705 0 14.9998 0ZM14.9998 28.5206C7.54463 28.5206 1.47944 22.4554 1.47944 15C1.47944 7.54488 7.54463 1.47944 14.9998 1.47944C22.4549 1.47944 28.5206 7.54488 28.5206 15C28.5203 22.4554 22.4549 28.5206 14.9998 28.5206Z" fill="white"/>
<path d="M15.2963 22.6964V14.4886H18.5829L19.1022 11.668H15.2963V10.2537C15.2963 9.51772 15.5786 8.81524 16.8149 8.81524H19.2857V6H15.7779C12.8285 6 12.0237 7.65961 12.0237 9.96012V11.6667H9.99999V14.4886H12.0237V23L15.2963 22.6964Z" stroke="white" stroke-width="1.6"/>
</svg>
