<svg width="42" height="42" viewBox="0 0 42 42" fill="none" xmlns="http://www.w3.org/2000/svg">
<circle cx="21" cy="21" r="21" fill="#FF3343"/>
<path d="M20.9997 0C9.42055 0 0 9.42056 0 21C0 32.5798 9.42055 42 20.9997 42C32.5791 42 42 32.5798 42 21C41.9997 9.42056 32.5788 0 20.9997 0ZM20.9997 39.9288C10.5625 39.9288 2.07121 31.4375 2.07121 21C2.07121 10.5628 10.5625 2.07121 20.9997 2.07121C31.4368 2.07121 39.9288 10.5628 39.9288 21C39.9284 31.4375 31.4368 39.9288 20.9997 39.9288Z" fill="white"/>
<path d="M21.4148 34.5V20.9812H26.0161L26.7431 16.3356H21.4148V14.0061C21.4148 12.7939 21.8101 11.6369 23.5408 11.6369H27V7H22.089C17.96 7 16.8332 9.73348 16.8332 13.5225V16.3334H14V20.9812H16.8332V35L21.4148 34.5Z" stroke="white" stroke-width="1.6"/>
</svg>
