<svg width="30" height="30" viewBox="0 0 30 30" fill="none" xmlns="http://www.w3.org/2000/svg">
<path d="M14.5896 0.410156C6.54497 0.410156 0 6.95513 0 15C0 23.0451 6.54497 29.5898 14.5896 29.5898C22.6345 29.5898 29.1797 23.0451 29.1797 15C29.1794 6.95513 22.6342 0.410156 14.5896 0.410156ZM14.5896 28.1509C7.33833 28.1509 1.43898 22.2515 1.43898 15C1.43898 7.74873 7.33833 1.84914 14.5896 1.84914C21.8409 1.84914 27.7407 7.74873 27.7407 15C27.7405 22.2515 21.8409 28.1509 14.5896 28.1509Z" fill="white"/>
<path d="M23.3703 15.0188C23.3703 16.2448 23.3365 17.4764 23.3759 18.7023C23.4603 21.0586 21.7619 23.0269 19.5181 23.5892C19.0795 23.7017 18.6127 23.7692 18.1628 23.7748C15.784 23.7917 13.4052 23.8142 11.0264 23.7748C9.0413 23.7411 7.47793 22.8975 6.42069 21.1823C6.01579 20.5244 5.81334 19.7933 5.81334 19.0172C5.80772 16.346 5.78522 13.6748 5.81896 11.0092C5.84146 9.26587 6.71312 7.97806 8.15839 7.05579C9.05817 6.48218 10.0535 6.2235 11.1164 6.2235C13.439 6.21787 15.7615 6.19538 18.0841 6.22912C20.1311 6.25724 21.7507 7.11203 22.8023 8.91158C23.1791 9.5583 23.3703 10.2725 23.3703 11.0317C23.3647 12.3589 23.3703 13.6917 23.3703 15.0188ZM7.10677 15.0076C7.10677 16.2898 7.10677 17.5776 7.10677 18.8598C7.10677 19.3715 7.20237 19.8664 7.44419 20.3219C8.22025 21.784 9.49118 22.4476 11.0939 22.4701C13.4165 22.5039 15.7446 22.487 18.0672 22.4701C18.4665 22.4701 18.8714 22.4026 19.2594 22.3014C20.8059 21.8853 22.1218 20.5469 22.0768 18.5842C22.0206 16.1098 22.0656 13.6354 22.0656 11.161C22.0656 10.6155 21.9644 10.0982 21.7001 9.62016C20.9071 8.19739 19.6418 7.55067 18.0672 7.52817C15.7503 7.49443 13.439 7.50568 11.122 7.52817C10.6609 7.5338 10.1885 7.61815 9.74425 7.75312C8.23149 8.21988 7.03929 9.56392 7.10115 11.3747C7.14051 12.5894 7.10677 13.7985 7.10677 15.0076Z" fill="white"/>
<path d="M14.5918 10.6152C16.8806 10.6096 18.7364 12.4373 18.7364 14.6867C18.7308 16.9249 16.8806 18.7526 14.6143 18.7582C12.3311 18.7639 10.481 16.9418 10.481 14.6811C10.481 12.4373 12.3143 10.6209 14.5918 10.6152ZM14.5918 11.9199C13.051 11.9255 11.78 13.1796 11.7856 14.6924C11.7913 16.2051 13.0566 17.4479 14.6087 17.4536C16.1552 17.4536 17.4261 16.2107 17.4317 14.698C17.4261 13.1627 16.1496 11.9143 14.5918 11.9199Z" fill="white"/>
<path d="M20.0862 10.2611C20.0974 10.7391 19.7038 11.1609 19.237 11.1778C18.759 11.1946 18.3485 10.7897 18.3428 10.2892C18.3372 9.79997 18.714 9.38944 19.1808 9.37257C19.6588 9.3557 20.0749 9.76623 20.0862 10.2611Z" fill="white"/>
</svg>
