<svg width="42" height="42" viewBox="0 0 42 42" fill="none" xmlns="http://www.w3.org/2000/svg">
<circle cx="21" cy="21" r="20" fill="#FF3343"/>
<path d="M20.9997 0.574219C9.73718 0.574219 0.574219 9.73718 0.574219 21C0.574219 32.2632 9.73718 41.4258 20.9997 41.4258C32.2625 41.4258 41.4258 32.2632 41.4258 21C41.4254 9.73718 32.2621 0.574219 20.9997 0.574219ZM20.9997 39.4112C10.8479 39.4112 2.58879 31.1521 2.58879 21C2.58879 10.8482 10.8479 2.58879 20.9997 2.58879C31.1514 2.58879 39.4112 10.8482 39.4112 21C39.4109 31.1521 31.1514 39.4112 20.9997 39.4112Z" fill="white"/>
<path d="M33.2926 21.0264C33.2926 22.7427 33.2454 24.4669 33.3005 26.1832C33.4186 29.482 31.0409 32.2376 27.8996 33.0249C27.2855 33.1824 26.632 33.2769 26.0021 33.2847C22.6718 33.3083 19.3415 33.3398 16.0112 33.2847C13.232 33.2375 11.0433 32.0565 9.56318 29.6552C8.99632 28.7341 8.71289 27.7106 8.71289 26.6241C8.70502 22.8844 8.67353 19.1447 8.72077 15.4129C8.75226 12.9722 9.97258 11.1693 11.996 9.87811C13.2557 9.07505 14.6492 8.71289 16.1372 8.71289C19.3888 8.70502 22.6403 8.67353 25.8919 8.72077C28.7577 8.76013 31.0252 9.95684 32.4974 12.4762C33.0249 13.3816 33.2926 14.3815 33.2926 15.4444C33.2847 17.3024 33.2926 19.1683 33.2926 21.0264ZM10.5237 21.0106C10.5237 22.8057 10.5237 24.6086 10.5237 26.4037C10.5237 27.1201 10.6575 27.813 10.9961 28.4507C12.0826 30.4977 13.8619 31.4267 16.1057 31.4582C19.3573 31.5054 22.6167 31.4818 25.8683 31.4582C26.4273 31.4582 26.9942 31.3637 27.5374 31.222C29.7025 30.6394 31.5448 28.7656 31.4818 26.0179C31.4031 22.5537 31.4661 19.0896 31.4661 15.6254C31.4661 14.8618 31.3243 14.1374 30.9543 13.4682C29.8442 11.4763 28.0728 10.5709 25.8683 10.5394C22.6246 10.4922 19.3888 10.508 16.1451 10.5394C15.4995 10.5473 14.8381 10.6654 14.2162 10.8544C12.0983 11.5078 10.4292 13.3895 10.5158 15.9246C10.5709 17.6252 10.5237 19.3179 10.5237 21.0106Z" fill="white"/>
<path d="M21.0028 14.8613C24.2071 14.8535 26.8052 17.4122 26.8052 20.5614C26.7973 23.6949 24.2071 26.2537 21.0343 26.2615C17.8378 26.2694 15.2476 23.7185 15.2476 20.5536C15.2476 17.4122 17.8142 14.8692 21.0028 14.8613ZM21.0028 16.6879C18.8455 16.6958 17.0662 18.4515 17.0741 20.5693C17.082 22.6872 18.8534 24.4271 21.0264 24.435C23.1915 24.435 24.9708 22.695 24.9787 20.5772C24.9708 18.4278 23.1836 16.68 21.0028 16.6879Z" fill="white"/>
<path d="M28.6946 14.3657C28.7104 15.035 28.1593 15.6254 27.5058 15.6491C26.8366 15.6727 26.2619 15.1058 26.254 14.4051C26.2461 13.7202 26.7736 13.1454 27.4271 13.1218C28.0963 13.0982 28.6789 13.6729 28.6946 14.3657Z" fill="white"/>
</svg>
