<svg width="24" height="24" viewBox="0 0 24 24" fill="none" xmlns="http://www.w3.org/2000/svg">
<circle cx="12" cy="12" r="12" fill="#FF3343"/>
<path d="M11.9998 0.328125C5.5641 0.328125 0.328125 5.5641 0.328125 12C0.328125 18.4361 5.5641 23.6719 11.9998 23.6719C18.4357 23.6719 23.6719 18.4361 23.6719 12C23.6717 5.5641 18.4355 0.328125 11.9998 0.328125ZM11.9998 22.5207C6.19879 22.5207 1.47931 17.8012 1.47931 12C1.47931 6.19898 6.19879 1.47931 11.9998 1.47931C17.8008 1.47931 22.5207 6.19898 22.5207 12C22.5205 17.8012 17.8008 22.5207 11.9998 22.5207Z" fill="#FF3343"/>
<path d="M19.0243 12.0151C19.0243 12.9958 18.9973 13.9811 19.0288 14.9618C19.0963 16.8469 17.7377 18.4215 15.9426 18.8714C15.5917 18.9614 15.2183 19.0153 14.8584 19.0198C12.9553 19.0333 11.0523 19.0513 9.14927 19.0198C7.56116 18.9929 6.31047 18.318 5.46468 16.9459C5.14076 16.4195 4.9788 15.8346 4.9788 15.2138C4.9743 13.0768 4.9563 10.9398 4.98329 8.80736C5.00129 7.4127 5.69862 6.38245 6.85483 5.64463C7.57466 5.18575 8.37096 4.9788 9.22125 4.9788C11.0793 4.9743 12.9373 4.9563 14.7954 4.98329C16.433 5.00579 17.7287 5.68962 18.57 7.12927C18.8714 7.64664 19.0243 8.218 19.0243 8.82535C19.0198 9.88709 19.0243 10.9533 19.0243 12.0151ZM6.01354 12.0061C6.01354 13.0318 6.01354 14.0621 6.01354 15.0878C6.01354 15.4972 6.09002 15.8931 6.28348 16.2575C6.90432 17.4272 7.92107 17.9581 9.20326 17.9761C11.0613 18.0031 12.9238 17.9896 14.7819 17.9761C15.1013 17.9761 15.4252 17.9221 15.7357 17.8411C16.9728 17.5082 18.0256 16.4375 17.9896 14.8674C17.9446 12.8879 17.9806 10.9083 17.9806 8.92883C17.9806 8.49243 17.8996 8.07853 17.6882 7.69613C17.0538 6.55791 16.0416 6.04054 14.7819 6.02254C12.9283 5.99555 11.0793 6.00454 9.22575 6.02254C8.85684 6.02704 8.47894 6.09452 8.12352 6.2025C6.91332 6.5759 5.95956 7.65114 6.00904 9.09978C6.04054 10.0715 6.01354 11.0388 6.01354 12.0061Z" fill="white"/>
<path d="M12.0016 8.4922C13.8326 8.4877 15.3173 9.94984 15.3173 11.7494C15.3128 13.54 13.8326 15.0021 12.0196 15.0066C10.193 15.0111 8.71289 13.5535 8.71289 11.7449C8.71289 9.94984 10.1795 8.4967 12.0016 8.4922ZM12.0016 9.53594C10.7689 9.54044 9.75213 10.5437 9.75663 11.7539C9.76113 12.9641 10.7734 13.9584 12.0151 13.9629C13.2523 13.9629 14.269 12.9686 14.2735 11.7584C14.269 10.5302 13.2478 9.53144 12.0016 9.53594Z" fill="white"/>
<path d="M16.3971 8.20927C16.4061 8.59168 16.0912 8.9291 15.7178 8.9426C15.3354 8.95609 15.007 8.63217 15.0025 8.23177C14.998 7.84036 15.2994 7.51195 15.6728 7.49845C16.0552 7.48495 16.3881 7.81337 16.3971 8.20927Z" fill="white"/>
</svg>
