<svg width="8" height="15" viewBox="0 0 8 15" fill="none" xmlns="http://www.w3.org/2000/svg">
<path d="M7.71925 14.7181C7.63496 14.8074 7.53487 14.8783 7.4247 14.9267C7.31453 14.9751 7.19643 15 7.07717 15C6.95791 15 6.83981 14.9751 6.72964 14.9267C6.61947 14.8783 6.51938 14.8074 6.43509 14.7181L0.266167 8.18843C0.181788 8.09915 0.11485 7.99313 0.069179 7.87643C0.0235083 7.75973 6.439e-07 7.63464 6.54944e-07 7.50831C6.65988e-07 7.38198 0.0235083 7.25689 0.0691791 7.14019C0.11485 7.02349 0.181789 6.91747 0.266167 6.82819L6.43509 0.298556C6.51861 0.205614 6.61884 0.131322 6.72988 0.0800577C6.84093 0.0287937 6.96054 0.00159654 7.08166 6.833e-05C7.20279 -0.00145988 7.32297 0.0227113 7.43514 0.0711591C7.54731 0.119607 7.64918 0.191351 7.73476 0.28216C7.82034 0.372969 7.88789 0.481005 7.93343 0.599902C7.97896 0.718799 8.00157 0.84615 7.99992 0.974448C7.99826 1.10275 7.97237 1.22939 7.92378 1.34693C7.87519 1.46446 7.80487 1.5705 7.71698 1.6588L2.19013 7.50831L7.71698 13.3578C7.80151 13.4469 7.86862 13.5528 7.91449 13.6695C7.96035 13.7861 7.98407 13.9111 7.98428 14.0374C7.98449 14.1638 7.96119 14.2889 7.91571 14.4057C7.87024 14.5225 7.80348 14.6286 7.71925 14.7181Z" fill="#fd1c2e"/>
</svg>
