<svg width="8" height="15" viewBox="0 0 8 15" fill="none" xmlns="http://www.w3.org/2000/svg">
<path d="M0.280753 14.7181C0.365038 14.8074 0.465129 14.8783 0.575301 14.9267C0.685473 14.9751 0.803567 15 0.922831 15C1.04209 15 1.16019 14.9751 1.27036 14.9267C1.38053 14.8783 1.48062 14.8074 1.56491 14.7181L7.73383 8.18843C7.81821 8.09915 7.88515 7.99313 7.93082 7.87643C7.97649 7.75973 8 7.63464 8 7.50831C8 7.38198 7.97649 7.25689 7.93082 7.14019C7.88515 7.02349 7.81821 6.91747 7.73383 6.82819L1.56491 0.298556C1.48139 0.205614 1.38116 0.131322 1.27012 0.0800577C1.15907 0.0287937 1.03946 0.00159654 0.918338 6.833e-05C0.797214 -0.00145988 0.677026 0.0227113 0.56486 0.0711591C0.452695 0.119607 0.350821 0.191351 0.265243 0.28216C0.179665 0.372969 0.112114 0.481005 0.0665747 0.599902C0.0210354 0.718799 -0.00157233 0.84615 8.46045e-05 0.974448C0.00174154 1.10275 0.0276294 1.22939 0.0762222 1.34693C0.124815 1.46446 0.195131 1.5705 0.283022 1.6588L5.80987 7.50831L0.283023 13.3578C0.198495 13.4469 0.131378 13.5528 0.085513 13.6695C0.0396475 13.7861 0.0159305 13.9111 0.0157198 14.0374C0.0155091 14.1638 0.0388099 14.2889 0.0842862 14.4057C0.129762 14.5225 0.196523 14.6286 0.280753 14.7181Z" fill="#fd1c2e"/>
</svg>
