<svg width="25" height="25" viewBox="0 0 25 25" fill="none" xmlns="http://www.w3.org/2000/svg">
<path d="M12.0786 0C7.48699 0 3.75 3.70312 3.75 8.2625C3.75315 12.6312 11.8988 25 12.0786 25C12.2615 25 20.4167 12.6312 20.4167 8.2625C20.4167 3.70312 16.6828 0 12.0786 0ZM12.0786 14.1281C8.81465 14.1281 6.15933 11.4969 6.15933 8.2625C6.15933 5.01562 8.81465 2.3875 12.0786 2.3875C15.3552 2.3875 18.0073 5.01875 18.0073 8.2625C18.0105 11.4969 15.3552 14.1281 12.0786 14.1281Z" fill="white"/>
<path d="M11.9971 5C10.3426 5 9 6.34849 9 8.00292C9 9.65736 10.3426 11 11.9971 11C13.6574 11 15 9.65736 15 8.00292C15 6.34849 13.6574 5 11.9971 5Z" fill="white"/>
</svg>
