<svg width="23" height="23" viewBox="0 0 23 23" fill="none" xmlns="http://www.w3.org/2000/svg">
<path d="M20.0943 2.13054H18.8112V1.98531C18.8112 0.8959 17.9155 0 16.8259 0H15.3491C14.2597 0 13.3638 0.895727 13.3638 1.98531V2.13054H9.68417V1.98531C9.68417 0.8959 8.78845 0 7.69887 0H6.22206C5.13265 0 4.23675 0.895727 4.23675 1.98531V2.13054H2.9295C1.30743 2.13054 0 3.46213 0 5.06004L0.000168876 19.8766C0.000168876 21.4986 1.30742 22.8061 2.92967 22.8061H20.0703C21.6924 22.8061 22.9998 21.4988 22.9998 19.8766L22.9997 5.06004C23.0238 3.43797 21.7165 2.13054 20.0943 2.13054ZM15.0829 1.98531C15.0829 1.84007 15.204 1.71899 15.3492 1.71899H16.826C16.9712 1.71899 17.0923 1.84007 17.0923 1.98531V4.06737C17.0923 4.2126 16.9712 4.33368 16.826 4.33368H15.3492C15.204 4.33368 15.0829 4.2126 15.0829 4.06737V1.98531ZM5.9557 1.98531C5.9557 1.84007 6.07679 1.71899 6.22202 1.71899H7.69883C7.84407 1.71899 7.96515 1.84007 7.96515 1.98531V4.06737C7.96515 4.2126 7.84407 4.33368 7.69883 4.33368H6.22202C6.07679 4.33368 5.9557 4.2126 5.9557 4.06737V1.98531ZM21.208 19.8765C21.208 20.4817 20.7238 20.9902 20.0943 20.9902H2.95358C2.34833 20.9902 1.83983 20.4817 1.83983 19.8765V8.52201H21.2078L21.208 19.8765Z" fill="white"/>
<path d="M4.7451 13.7757H6.94825C7.3598 13.7757 7.69871 13.4367 7.69871 13.0252V11.3305C7.69871 10.919 7.35978 10.5801 6.94825 10.5801H4.7451C4.33355 10.5801 3.99463 10.919 3.99463 11.3305V13.0252C4.01878 13.4367 4.33356 13.7757 4.7451 13.7757Z" fill="white"/>
<path d="M16.0996 13.7757H18.3027C18.7143 13.7757 19.0532 13.4367 19.0532 13.0252V11.3305C19.0532 10.919 18.7143 10.5801 18.3027 10.5801H16.0996C15.688 10.5801 15.3491 10.919 15.3491 11.3305V13.0252C15.3491 13.4367 15.6881 13.7757 16.0996 13.7757Z" fill="white"/>
<path d="M10.4345 13.7757H12.6376C13.0492 13.7757 13.3881 13.4367 13.3881 13.0252V11.3305C13.3881 10.919 13.0491 10.5801 12.6376 10.5801H10.4345C10.023 10.5801 9.68408 10.919 9.68408 11.3305V13.0252C9.68408 13.4367 10.023 13.7757 10.4345 13.7757Z" fill="white"/>
<path d="M4.7451 18.9809H6.94825C7.3598 18.9809 7.69871 18.642 7.69871 18.2304V16.5358C7.69871 16.1242 7.35978 15.7853 6.94825 15.7853L4.7451 15.7852C4.33355 15.7852 3.99463 16.1241 3.99463 16.5356V18.2303C4.01878 18.642 4.33356 18.9809 4.7451 18.9809V18.9809Z" fill="white"/>
<path d="M16.0996 18.9807H18.3027C18.7143 18.9807 19.0532 18.6418 19.0532 18.2303V16.5356C19.0532 16.1241 18.7143 15.7852 18.3027 15.7852H16.0996C15.688 15.7852 15.3491 16.1241 15.3491 16.5356V18.2303C15.3491 18.6418 15.6881 18.9807 16.0996 18.9807Z" fill="white"/>
<path d="M10.4345 18.9807H12.6376C13.0492 18.9807 13.3881 18.6418 13.3881 18.2303V16.5356C13.3881 16.1241 13.0491 15.7852 12.6376 15.7852H10.4345C10.023 15.7852 9.68408 16.1241 9.68408 16.5356V18.2303C9.68408 18.6418 10.023 18.9807 10.4345 18.9807Z" fill="white"/>
</svg>
