<svg width="20" height="20" viewBox="0 0 20 20" fill="none" xmlns="http://www.w3.org/2000/svg">
<path fill-rule="evenodd" clip-rule="evenodd" d="M14.6061 13.1661L19.7026 18.2635C20.0991 18.6601 20.1003 19.3018 19.6992 19.7029C19.3009 20.1013 18.6494 20.0956 18.2601 19.7063L13.1636 14.6088C9.96253 17.1005 5.33223 16.8749 2.38992 13.9321C-0.79664 10.7449 -0.79664 5.57752 2.38992 2.39037C5.57648 -0.796789 10.7429 -0.796789 13.9295 2.39037C16.8718 5.33323 17.0973 9.9644 14.6061 13.1661ZM12.487 12.4894C14.8769 10.099 14.8769 6.22345 12.487 3.83308C10.0971 1.44271 6.22228 1.44271 3.83236 3.83308C1.44244 6.22345 1.44244 10.099 3.83236 12.4894C6.22228 14.8797 10.0971 14.8797 12.487 12.4894Z" fill="black"/>
</svg>
