<svg width="25" height="25" viewBox="0 0 25 25" fill="none" xmlns="http://www.w3.org/2000/svg">
<path fill-rule="evenodd" clip-rule="evenodd" d="M6.56058 9.70198C8.59416 13.517 11.4966 16.4233 15.3076 18.4583L16.3368 17.1964L23.9752 22.1909C23.8704 22.3859 23.7543 22.5876 23.6352 22.805C18.264 32.6081 -7.64678 6.71022 2.21927 1.36703C2.43724 1.24856 2.63872 1.13084 2.83272 1.02586L7.82192 8.67248L6.56133 9.70273L6.56058 9.70198ZM24.3632 21.4306C24.692 20.7415 24.892 20.1604 24.9849 19.5523C25.0703 18.9914 24.7879 18.4546 24.2778 18.2086L20.1403 15.4088C19.2512 14.9792 18.2318 15.1486 17.5292 15.8422L16.9038 16.5523L24.3632 21.4306ZM3.59222 0.636709C4.27982 0.30754 4.86031 0.107339 5.46851 0.0151118C6.02803 -0.0703672 6.56432 0.212313 6.81 0.722938L9.60758 4.86417C10.0368 5.7542 9.86749 6.7747 9.1739 7.47803L8.46458 8.10487L3.59222 0.636709Z" fill="white"/>
</svg>
