<svg width="31" height="30" viewBox="0 0 31 30" fill="none" xmlns="http://www.w3.org/2000/svg">
<path d="M15.1259 5.4852C13.5978 5.50366 10.3126 5.755 8.4751 7.44235C7.10828 8.79795 6.63106 10.8022 6.57512 13.2805C6.52871 15.7498 6.47278 20.3872 10.9386 21.6499V23.5731C10.9386 23.5731 10.9106 24.3426 11.4188 24.5005C12.0448 24.6988 12.4012 24.1068 12.9963 23.4707L14.106 22.2145C17.1616 22.4689 19.5019 21.8828 19.7714 21.7958C20.3915 21.5975 23.8838 21.1508 24.4545 16.5128C25.04 11.723 24.1694 8.70503 22.5979 7.33991H22.5884C22.1141 6.90273 20.2082 5.51259 15.9501 5.49711C15.9501 5.49711 15.6341 5.47567 15.1259 5.4846V5.4852ZM15.1783 6.83186C15.6121 6.82888 15.8757 6.84734 15.8757 6.84734C19.4799 6.85687 21.2001 7.94266 21.606 8.30836C22.9294 9.44358 23.6113 12.1643 23.112 16.1632C22.6378 20.0406 19.8054 20.286 19.2811 20.4533C19.058 20.5248 16.9967 21.0335 14.4 20.8661C14.4 20.8661 12.4661 23.2021 11.8615 23.8036C11.7657 23.909 11.6538 23.94 11.5824 23.9245C11.4801 23.8995 11.4491 23.7726 11.4551 23.5987L11.4735 20.4069C7.68607 19.3586 7.90922 15.4032 7.94968 13.3371C7.99609 11.2709 8.38347 9.58057 9.53666 8.43582C11.0891 7.03079 13.8787 6.84139 15.1771 6.83186H15.1783ZM15.4639 8.89741C15.3336 8.89444 15.2253 9.00284 15.2253 9.13327C15.2253 9.26669 15.3336 9.37211 15.4639 9.37211C16.657 9.35067 17.8072 9.80333 18.6623 10.6348C19.5269 11.4752 19.9482 12.6045 19.9642 14.081C19.9642 14.2114 20.0696 14.3198 20.2029 14.3198V14.3103C20.3332 14.3103 20.4415 14.2048 20.4415 14.0744C20.5004 12.6694 19.9797 11.3043 19.0032 10.2929C18.0613 9.37152 16.8676 8.89682 15.4639 8.89682V8.89741ZM12.3274 9.44358C12.1602 9.41857 11.9865 9.45311 11.8407 9.53948H11.8282C11.5057 9.72888 11.2052 9.96772 10.9201 10.287C10.703 10.5383 10.5851 10.7926 10.5542 11.0374C10.5357 11.1833 10.5482 11.3293 10.5917 11.4686L10.6072 11.4782C10.8517 12.1977 11.1713 12.8898 11.5616 13.5413C12.0638 14.4562 12.6833 15.3031 13.4027 16.0602L13.4241 16.0911L13.458 16.1161L13.4794 16.1412L13.5044 16.1626C14.2637 16.8857 15.1099 17.5057 16.0274 18.0143C17.0747 18.5849 17.7102 18.8547 18.0916 18.9667V18.9727C18.2035 19.0066 18.3053 19.0221 18.4076 19.0221C18.7331 18.9971 19.0401 18.8672 19.2817 18.6469C19.5917 18.3675 19.8363 18.0608 20.0196 17.735V17.729C20.2023 17.3848 20.1404 17.059 19.8768 16.8386C19.3502 16.3764 18.7765 15.9666 18.172 15.6135C17.7661 15.3931 17.3538 15.5265 17.1866 15.7498L16.8301 16.1995C16.6475 16.4229 16.3154 16.3919 16.3154 16.3919L16.3059 16.3979C13.8299 15.7647 13.1694 13.2555 13.1694 13.2555C13.1694 13.2555 13.1385 12.9142 13.3676 12.7403L13.8139 12.3805C14.0275 12.2066 14.1762 11.7944 13.9471 11.3876C13.5967 10.7795 13.1879 10.2089 12.7261 9.68123C12.6267 9.55734 12.4845 9.47336 12.3262 9.44239L12.3274 9.44358ZM15.8757 10.1512C15.5597 10.1512 15.5597 10.6288 15.8787 10.6288C16.6719 10.6413 17.4282 10.9701 17.9798 11.5407C18.482 12.0958 18.742 12.8344 18.6926 13.5818C18.6956 13.7123 18.8009 13.8177 18.9312 13.8177L18.9408 13.8302C19.0711 13.8302 19.1794 13.7218 19.1794 13.5914C19.2008 12.645 18.9068 11.851 18.3302 11.2149C17.7507 10.5788 16.942 10.222 15.9096 10.1512C15.8971 10.1512 15.8882 10.1512 15.8757 10.1512ZM16.2666 11.4353C15.9411 11.4258 15.9286 11.913 16.2512 11.9225C17.0354 11.963 17.4163 12.3597 17.4662 13.1756C17.4692 13.3061 17.5745 13.4085 17.7019 13.4085H17.7114C17.8447 13.4026 17.95 13.2876 17.9405 13.1542C17.8846 12.0905 17.305 11.4913 16.2761 11.4359C16.2732 11.4359 16.2702 11.4359 16.2666 11.4359V11.4353Z" fill="white"/>
<path d="M15.1794 0C6.90865 0 0.179688 6.72897 0.179688 15C0.179688 23.2713 6.90865 30 15.1794 30C23.4505 30 30.1797 23.2713 30.1797 15C30.1794 6.72897 23.4502 0 15.1794 0ZM15.1794 28.5206C7.72432 28.5206 1.65912 22.4554 1.65912 15C1.65912 7.54488 7.72432 1.47944 15.1794 1.47944C22.6346 1.47944 28.7003 7.54488 28.7003 15C28.7 22.4554 22.6346 28.5206 15.1794 28.5206Z" fill="white"/>
</svg>
