<svg width="42" height="42" viewBox="0 0 42 42" fill="none" xmlns="http://www.w3.org/2000/svg">
<circle cx="21" cy="21" r="20" fill="#FF3343"/>
<path d="M20.9246 7.67869C18.7853 7.70454 14.186 8.05642 11.6135 10.4187C9.69994 12.3165 9.03182 15.1224 8.95351 18.5921C8.88853 22.0492 8.81023 28.5415 15.0624 30.3093V33.0018C15.0624 33.0018 15.0232 34.0791 15.7347 34.3001C16.611 34.5777 17.11 33.7489 17.9431 32.8584L19.4968 31.0998C23.7745 31.4558 27.051 30.6353 27.4284 30.5136C28.2964 30.2359 33.1857 29.6105 33.9846 23.1174C34.8043 16.4116 33.5855 12.1865 31.3854 10.2753H31.3721C30.7081 9.66324 28.0398 7.71704 22.0784 7.69536C22.0784 7.69536 21.6361 7.66535 20.9246 7.67785V7.67869ZM20.9979 9.56401C21.6053 9.55985 21.9743 9.58569 21.9743 9.58569C27.0202 9.59904 29.4286 11.1191 29.9967 11.6311C31.8494 13.2204 32.8041 17.0294 32.1052 22.6279C31.4412 28.0562 27.4758 28.3998 26.7419 28.6341C26.4295 28.7341 23.5438 29.4463 19.9083 29.2119C19.9083 29.2119 17.2008 32.4823 16.3545 33.3245C16.2203 33.4721 16.0637 33.5154 15.9637 33.4937C15.8205 33.4587 15.7771 33.2811 15.7855 33.0376L15.8113 28.569C10.5088 27.1015 10.8212 21.5639 10.8779 18.6713C10.9429 15.7787 11.4852 13.4122 13.0997 11.8096C15.2731 9.84252 19.1785 9.57736 20.9963 9.56401H20.9979ZM21.3978 12.4558C21.2154 12.4516 21.0638 12.6034 21.0638 12.786C21.0638 12.9728 21.2154 13.1204 21.3978 13.1204C23.0681 13.0904 24.6784 13.7241 25.8755 14.8881C27.086 16.0647 27.6758 17.6457 27.6983 19.7128C27.6983 19.8954 27.8457 20.0471 28.0323 20.0471V20.0338C28.2148 20.0338 28.3664 19.8862 28.3664 19.7036C28.4489 17.7365 27.7199 15.8254 26.3529 14.4095C25.0341 13.1195 23.363 12.455 21.3978 12.455V12.4558ZM17.0067 13.2204C16.7726 13.1854 16.5294 13.2338 16.3253 13.3547H16.3078C15.8563 13.6198 15.4356 13.9542 15.0365 14.4012C14.7325 14.753 14.5675 15.1091 14.5242 15.4518C14.4984 15.6561 14.5159 15.8604 14.5767 16.0555L14.5984 16.0689C14.9407 17.0761 15.3881 18.0451 15.9346 18.9573C16.6377 20.2381 17.5049 21.4238 18.5121 22.4836L18.5421 22.527L18.5896 22.562L18.6195 22.597L18.6545 22.6271C19.7175 23.6393 20.9021 24.5074 22.1867 25.2195C23.6529 26.0183 24.5426 26.396 25.0766 26.5528V26.5611C25.2332 26.6087 25.3757 26.6304 25.519 26.6304C25.9747 26.5953 26.4045 26.4136 26.7428 26.105C27.1768 25.714 27.5192 25.2845 27.7758 24.8284V24.8201C28.0315 24.3381 27.9449 23.882 27.5758 23.5735C26.8386 22.9264 26.0355 22.3527 25.1891 21.8582C24.6209 21.5497 24.0436 21.7365 23.8095 22.0492L23.3105 22.6788C23.0548 22.9914 22.5899 22.9481 22.5899 22.9481L22.5766 22.9564C19.1102 22.07 18.1855 18.557 18.1855 18.557C18.1855 18.557 18.1422 18.0793 18.4629 17.8358L19.0877 17.3321C19.3868 17.0886 19.5951 16.5116 19.2743 15.9421C18.7837 15.0907 18.2113 14.2919 17.5649 13.5531C17.4258 13.3797 17.2267 13.2621 17.0051 13.2188L17.0067 13.2204ZM21.9743 14.211C21.5319 14.211 21.5319 14.8798 21.9785 14.8798C23.0889 14.8973 24.1478 15.3576 24.92 16.1564C25.6231 16.9335 25.9872 17.9675 25.918 19.014C25.9222 19.1966 26.0696 19.3442 26.2521 19.3442L26.2654 19.3617C26.4478 19.3617 26.5995 19.21 26.5995 19.0273C26.6295 17.7024 26.2179 16.5908 25.4107 15.7003C24.5993 14.8097 23.4671 14.3103 22.0218 14.211C22.0043 14.211 21.9918 14.211 21.9743 14.211ZM22.5216 16.0088C22.0659 15.9955 22.0484 16.6776 22.5 16.6909C23.5979 16.7476 24.1311 17.3029 24.2011 18.4453C24.2052 18.6279 24.3527 18.7713 24.531 18.7713H24.5443C24.7309 18.763 24.8784 18.6021 24.865 18.4153C24.7867 16.926 23.9753 16.0872 22.5349 16.0096C22.5308 16.0096 22.5266 16.0096 22.5216 16.0096V16.0088Z" fill="white"/>
<path d="M20.9997 0C9.42055 0 0 9.42056 0 21C0 32.5798 9.42055 42 20.9997 42C32.5791 42 42 32.5798 42 21C41.9997 9.42056 32.5788 0 20.9997 0ZM20.9997 39.9288C10.5625 39.9288 2.07121 31.4375 2.07121 21C2.07121 10.5628 10.5625 2.07121 20.9997 2.07121C31.4368 2.07121 39.9288 10.5628 39.9288 21C39.9284 31.4375 31.4368 39.9288 20.9997 39.9288Z" fill="white"/>
</svg>
