<svg width="24" height="24" viewBox="0 0 24 24" fill="none" xmlns="http://www.w3.org/2000/svg">
<circle cx="12" cy="12" r="12" fill="#FF3343"/>
<path d="M11.9568 4.38796C10.7343 4.40273 8.10614 4.60381 6.63614 5.95369C5.54268 7.03816 5.1609 8.64153 5.11615 10.6242C5.07902 12.5997 5.03427 16.3096 8.60693 17.3197V18.8583C8.60693 18.8583 8.58455 19.4739 8.99109 19.6002C9.49188 19.7589 9.77703 19.2852 10.2531 18.7763L11.1409 17.7714C13.5853 17.9749 15.4576 17.506 15.6732 17.4365C16.1692 17.2778 18.9631 16.9204 19.4196 13.2101C19.888 9.37818 19.1916 6.96383 17.9344 5.87173H17.9268C17.5474 5.52199 16.0226 4.40988 12.6161 4.39749C12.6161 4.39749 12.3633 4.38034 11.9568 4.38748V4.38796ZM11.9987 5.46529C12.3457 5.46291 12.5566 5.47768 12.5566 5.47768C15.44 5.4853 16.8162 6.35393 17.1408 6.64649C18.1995 7.55467 18.7451 9.73125 18.3457 12.9304C17.9663 16.0323 15.7003 16.2286 15.281 16.3625C15.1024 16.4197 13.4535 16.8266 11.376 16.6927C11.376 16.6927 9.82891 18.5614 9.34526 19.0427C9.26862 19.127 9.17912 19.1518 9.122 19.1394C9.04012 19.1194 9.01537 19.0179 9.02013 18.8788L9.03488 16.3253C6.00491 15.4867 6.18343 12.3224 6.2158 10.6694C6.25293 9.01652 6.56283 7.66426 7.48539 6.74846C8.72736 5.62444 10.959 5.47291 11.9977 5.46529H11.9987ZM12.2272 7.11774C12.1229 7.11535 12.0363 7.20207 12.0363 7.30642C12.0363 7.41316 12.1229 7.49749 12.2272 7.49749C13.1816 7.48034 14.1018 7.84247 14.7859 8.50764C15.4776 9.17996 15.8146 10.0834 15.8274 11.2646C15.8274 11.3689 15.9117 11.4556 16.0183 11.4556V11.448C16.1226 11.448 16.2092 11.3637 16.2092 11.2593C16.2564 10.1353 15.8398 9.04321 15.0586 8.23414C14.3051 7.49702 13.3502 7.11726 12.2272 7.11726V7.11774ZM9.718 7.55467C9.58423 7.53466 9.44523 7.5623 9.3286 7.63139H9.3186C9.06059 7.78291 8.82019 7.97398 8.59217 8.22937C8.41842 8.43045 8.32416 8.63391 8.29941 8.82974C8.28465 8.94648 8.29465 9.06322 8.3294 9.17472L8.34178 9.18234C8.53743 9.75793 8.79306 10.3116 9.10534 10.8329C9.50711 11.5648 10.0027 12.2423 10.5782 12.8479L10.5953 12.8727L10.6225 12.8927L10.6396 12.9127L10.6596 12.9299C11.267 13.5083 11.9439 14.0044 12.678 14.4113C13.5158 14.8677 14.0242 15.0836 14.3294 15.1732V15.1779C14.4189 15.2051 14.5003 15.2175 14.5821 15.2175C14.8425 15.1975 15.0882 15.0936 15.2814 14.9173C15.5294 14.6938 15.7251 14.4484 15.8717 14.1878V14.183C16.0179 13.9076 15.9684 13.647 15.7575 13.4707C15.3362 13.1009 14.8773 12.7731 14.3936 12.4906C14.069 12.3143 13.7391 12.421 13.6053 12.5997L13.3202 12.9594C13.174 13.1381 12.9084 13.1133 12.9084 13.1133L12.9008 13.1181C10.92 12.6116 10.3916 10.6042 10.3916 10.6042C10.3916 10.6042 10.3668 10.3311 10.5501 10.192L10.9071 9.90421C11.078 9.76508 11.197 9.43535 11.0138 9.10992C10.7334 8.62343 10.4063 8.16695 10.0369 7.74479C9.95744 7.64568 9.84367 7.5785 9.71704 7.55372L9.718 7.55467ZM12.5566 8.12073C12.3038 8.12073 12.3038 8.50287 12.559 8.50287C13.1935 8.51288 13.7986 8.7759 14.2399 9.23237C14.6416 9.67645 14.8497 10.2673 14.8102 10.8653C14.8125 10.9696 14.8968 11.054 15.001 11.054L15.0087 11.064C15.1129 11.064 15.1996 10.9773 15.1996 10.8729C15.2167 10.1158 14.9815 9.48062 14.5203 8.97174C14.0566 8.46285 13.4097 8.17744 12.5837 8.12073C12.5737 8.12073 12.5666 8.12073 12.5566 8.12073ZM12.8694 9.14803C12.609 9.14041 12.599 9.53017 12.857 9.5378C13.4844 9.5702 13.7891 9.88754 13.829 10.5403C13.8314 10.6447 13.9157 10.7266 14.0176 10.7266H14.0252C14.1318 10.7219 14.2161 10.6299 14.2084 10.5232C14.1637 9.67217 13.7 9.19282 12.877 9.14851C12.8746 9.14851 12.8722 9.14851 12.8694 9.14851V9.14803Z" fill="white"/>
</svg>
