<svg width="31" height="30" viewBox="0 0 31 30" fill="none" xmlns="http://www.w3.org/2000/svg">
<path d="M15.1794 0C6.90865 0 0.179688 6.72897 0.179688 15C0.179688 23.2713 6.90865 30 15.1794 30C23.4505 30 30.1797 23.2713 30.1797 15C30.1794 6.72897 23.4502 0 15.1794 0ZM15.1794 28.5206C7.72432 28.5206 1.65912 22.4554 1.65912 15C1.65912 7.54488 7.72432 1.47944 15.1794 1.47944C22.6346 1.47944 28.7003 7.54488 28.7003 15C28.7 22.4554 22.6346 28.5206 15.1794 28.5206Z" fill="white"/>
<path d="M24.2158 14.7673C24.2158 19.6293 20.2442 23.5707 15.344 23.5707C13.7883 23.5707 12.3269 23.1731 11.0554 22.4753L6.14355 24.0362L7.74496 19.3129C6.93713 17.9864 6.47187 16.4305 6.47187 14.7673C6.47187 9.90523 10.444 5.96387 15.344 5.96387C20.2446 5.96387 24.2158 9.90523 24.2158 14.7673ZM15.344 7.36588C11.2307 7.36588 7.88492 10.6862 7.88492 14.7673C7.88492 16.3868 8.41283 17.8866 9.3058 19.1066L8.37388 21.8554L11.2403 20.9444C12.4181 21.7177 13.8289 22.1687 15.3442 22.1687C19.4568 22.1687 22.8032 18.8488 22.8032 14.7677C22.8032 10.6866 19.457 7.36588 15.344 7.36588ZM19.8241 16.7948C19.7693 16.705 19.6245 16.6508 19.4072 16.543C19.1895 16.4352 18.1201 15.9129 17.9213 15.8412C17.7219 15.7693 17.5765 15.7331 17.4317 15.949C17.2869 16.1651 16.8701 16.6508 16.743 16.7948C16.616 16.9392 16.4893 16.9572 16.2717 16.8492C16.0544 16.7414 15.3538 16.5133 14.5231 15.7783C13.8767 15.2064 13.4401 14.5004 13.3132 14.2841C13.1865 14.0683 13.3 13.9516 13.4086 13.8442C13.5066 13.7474 13.6263 13.5922 13.7349 13.4663C13.844 13.3402 13.8801 13.2504 13.9522 13.1062C14.0251 12.9623 13.9887 12.8364 13.9341 12.7281C13.8799 12.6203 13.4446 11.5584 13.2634 11.1263C13.0823 10.6946 12.9014 10.7665 12.7743 10.7665C12.6476 10.7665 12.5024 10.7484 12.3574 10.7484C12.2124 10.7484 11.9767 10.8024 11.7773 11.0183C11.5781 11.2343 11.0164 11.7564 11.0164 12.8181C11.0164 13.8799 11.7954 14.9058 11.9044 15.0496C12.013 15.1934 13.4084 17.4432 15.6193 18.3072C17.8303 19.1709 17.8303 18.8827 18.2291 18.8466C18.6275 18.8107 19.5154 18.3247 19.6974 17.8211C19.8781 17.3167 19.8781 16.8848 19.8241 16.7948Z" fill="white"/>
</svg>
