<svg width="42" height="42" viewBox="0 0 42 42" fill="none" xmlns="http://www.w3.org/2000/svg">
<circle cx="21" cy="21" r="20" fill="#FF3343"/>
<path d="M20.9997 0C9.42055 0 0 9.42056 0 21C0 32.5798 9.42055 42 20.9997 42C32.5791 42 42 32.5798 42 21C41.9997 9.42056 32.5788 0 20.9997 0ZM20.9997 39.9288C10.5625 39.9288 2.07121 31.4375 2.07121 21C2.07121 10.5628 10.5625 2.07121 20.9997 2.07121C31.4368 2.07121 39.9288 10.5628 39.9288 21C39.9284 31.4375 31.4368 39.9288 20.9997 39.9288Z" fill="white"/>
<path d="M33.6508 20.6744C33.6508 27.4813 28.0905 32.9992 21.2302 32.9992C19.0523 32.9992 17.0063 32.4425 15.2262 31.4656L8.34961 33.6508L10.5916 27.0382C9.46061 25.1811 8.80925 23.0029 8.80925 20.6744C8.80925 13.8675 14.3702 8.34961 21.2302 8.34961C28.091 8.34961 33.6508 13.8675 33.6508 20.6744ZM21.2302 10.3124C15.4716 10.3124 10.7875 14.9608 10.7875 20.6744C10.7875 22.9417 11.5266 25.0414 12.7768 26.7495L11.4721 30.5978L15.4851 29.3223C17.1339 30.405 19.1091 31.0364 21.2305 31.0364C26.9882 31.0364 31.6731 26.3885 31.6731 20.675C31.6731 14.9614 26.9884 10.3124 21.2302 10.3124ZM27.5023 23.5129C27.4256 23.3872 27.2229 23.3113 26.9187 23.1604C26.614 23.0094 25.1167 22.2782 24.8384 22.1778C24.5592 22.0772 24.3557 22.0266 24.153 22.3288C23.9503 22.6313 23.3667 23.3113 23.1888 23.5129C23.0111 23.715 22.8337 23.7403 22.529 23.5891C22.2248 23.4381 21.2439 23.1188 20.0809 22.0899C19.176 21.2892 18.5648 20.3008 18.3872 19.998C18.2098 19.6958 18.3686 19.5325 18.5207 19.3821C18.6579 19.2466 18.8254 19.0292 18.9775 18.853C19.1302 18.6764 19.1808 18.5508 19.2817 18.3489C19.3837 18.1474 19.3329 17.9711 19.2564 17.8196C19.1805 17.6686 18.571 16.182 18.3174 15.577C18.0639 14.9726 17.8106 15.0733 17.6326 15.0733C17.4552 15.0733 17.252 15.048 17.049 15.048C16.846 15.048 16.516 15.1236 16.2368 15.4258C15.958 15.7283 15.1717 16.4592 15.1717 17.9455C15.1717 19.4321 16.2621 20.8684 16.4148 21.0697C16.5669 21.2709 18.5204 24.4207 21.6156 25.6303C24.7111 26.8394 24.7111 26.436 25.2694 26.3854C25.8271 26.3351 27.0703 25.6548 27.325 24.9497C27.578 24.2435 27.578 23.6388 27.5023 23.5129Z" fill="white"/>
</svg>
