<svg width="24" height="24" viewBox="0 0 24 24" fill="none" xmlns="http://www.w3.org/2000/svg">
<circle cx="12" cy="12" r="12" fill="#FF3343"/>
<path d="M19.2288 11.8132C19.2288 15.7029 16.0515 18.856 12.1313 18.856C10.8868 18.856 9.71766 18.5379 8.70047 17.9797L4.771 19.2283L6.05212 15.4497C5.40586 14.3885 5.03365 13.1438 5.03365 11.8132C5.03365 7.9236 8.21132 4.77051 12.1313 4.77051C16.0518 4.77051 19.2288 7.9236 19.2288 11.8132ZM12.1313 5.89211C8.84071 5.89211 6.16409 8.54834 6.16409 11.8132C6.16409 13.1088 6.58642 14.3087 7.3008 15.2847L6.55525 17.4838L8.84843 16.7549C9.79059 17.3736 10.9193 17.7344 12.1315 17.7344C15.4216 17.7344 18.0987 15.0785 18.0987 11.8136C18.0987 8.54866 15.4218 5.89211 12.1313 5.89211ZM15.7154 13.4352C15.6716 13.3634 15.5557 13.3201 15.3819 13.2338C15.2078 13.1475 14.3522 12.7297 14.1932 12.6724C14.0336 12.6148 13.9173 12.5859 13.8015 12.7586C13.6857 12.9315 13.3522 13.3201 13.2505 13.4352C13.149 13.5507 13.0476 13.5652 12.8735 13.4788C12.6997 13.3925 12.1392 13.21 11.4746 12.6221C10.9575 12.1646 10.6083 11.5997 10.5067 11.4267C10.4054 11.254 10.4961 11.1607 10.583 11.0748C10.6614 10.9973 10.7572 10.8732 10.8441 10.7724C10.9313 10.6716 10.9602 10.5997 11.0179 10.4844C11.0762 10.3692 11.0471 10.2685 11.0034 10.1819C10.9601 10.0956 10.6118 9.24617 10.4669 8.90047C10.322 8.55509 10.1773 8.6126 10.0756 8.6126C9.97421 8.6126 9.85806 8.59814 9.74208 8.59814C9.6261 8.59814 9.4375 8.64135 9.27798 8.81404C9.11863 8.98689 8.66931 9.40456 8.66931 10.2539C8.66931 11.1034 9.29244 11.9241 9.37967 12.0391C9.46658 12.1541 10.5829 13.954 12.3516 14.6452C14.1204 15.3361 14.1204 15.1056 14.4394 15.0767C14.7581 15.0479 15.4685 14.6592 15.614 14.2563C15.7586 13.8528 15.7586 13.5072 15.7154 13.4352Z" fill="white"/>
</svg>
